    <svg class="logo-hm" viewBox="0 0 127 28" version="1.1" xmlns="http://www.w3.org/2000/svg" xmlns:xlink="http://www.w3.org/1999/xlink">
        <g stroke="none" stroke-width="1" fill="none" fill-rule="evenodd">
            <g fill="#EF3C24">
                <path class="logotype" d="M42.96,20 L42.96,14.88 L39.184,14.88 L39.184,20 L37.36,20 L37.36,8.928 L39.184,8.928 L39.184,13.376 L42.96,13.376 L42.96,8.928 L44.816,8.928 L44.816,20 L42.96,20 Z M48.622,16.432 L48.622,16.56 C48.622,16.8373347 48.651333,17.1146653 48.71,17.392 C48.768667,17.6693347 48.8753326,17.9173322 49.03,18.136 C49.1846674,18.3546678 49.3899987,18.530666 49.646,18.664 C49.9020013,18.797334 50.2273314,18.864 50.622,18.864 C51.347337,18.864 52.0193302,18.597336 52.638,18.064 L53.326,19.136 C52.4833291,19.8506702 51.5126722,20.208 50.414,20.208 C49.8379971,20.208 49.320669,20.1093343 48.862,19.912 C48.403331,19.7146657 48.0140016,19.4320018 47.694,19.064 C47.3739984,18.6959982 47.1260009,18.2506693 46.95,17.728 C46.7739991,17.2053307 46.686,16.6186699 46.686,15.968 C46.686,15.2533298 46.7659992,14.6480025 46.926,14.152 C47.0860008,13.6559975 47.3419982,13.2053354 47.694,12.8 C48.0246683,12.4266648 48.3926646,12.1520009 48.798,11.976 C49.2033354,11.7999991 49.6619974,11.712 50.174,11.712 C50.5793354,11.712 50.9659982,11.7733327 51.334,11.896 C51.7020018,12.0186673 52.056665,12.2346651 52.398,12.544 C52.7500018,12.8640016 53.0139991,13.2959973 53.19,13.84 C53.3660009,14.3840027 53.454,15.1253286 53.454,16.064 L53.454,16.432 L48.622,16.432 Z M51.63,15.136 C51.63,14.4746634 51.4993346,13.9600018 51.238,13.592 C50.9766654,13.2239982 50.6220022,13.04 50.174,13.04 C49.6726642,13.04 49.2913346,13.2239982 49.03,13.592 C48.7686654,13.9600018 48.638,14.4746634 48.638,15.136 L51.63,15.136 Z M58.94,13.44 C58.8546662,13.4079998 58.774667,13.3813334 58.7,13.36 C58.625333,13.3386666 58.5400005,13.328 58.444,13.328 C58.0706648,13.328 57.7453347,13.4453322 57.468,13.68 C57.1906653,13.9146678 57.0093338,14.1973317 56.924,14.528 L56.924,20 L55.164,20 L55.164,14.288 C55.164,13.7759974 55.1373336,13.3466684 55.084,13 C55.0306664,12.6533316 54.9613338,12.3573346 54.876,12.112 L56.492,11.696 C56.6946677,12.0800019 56.796,12.5066643 56.796,12.976 C57.1160016,12.5279978 57.4413317,12.200001 57.772,11.992 C58.1026683,11.783999 58.4653314,11.68 58.86,11.68 C59.0946678,11.68 59.3026658,11.7226662 59.484,11.808 L58.94,13.44 Z M68.874,20 L68.874,14.4 C68.874,13.9306643 68.8126673,13.6106675 68.69,13.44 C68.5673327,13.2693325 68.3513349,13.184 68.042,13.184 C67.7433318,13.184 67.4526681,13.2719991 67.17,13.448 C66.8873319,13.6240009 66.6073347,13.845332 66.33,14.112 L66.33,20 L64.65,20 L64.65,14.448 C64.65,13.9679976 64.5886673,13.6400009 64.466,13.464 C64.3433327,13.2879991 64.111335,13.2 63.77,13.2 C63.5246654,13.2 63.2606681,13.2639994 62.978,13.392 C62.6953319,13.5200006 62.4046681,13.7226653 62.106,14 L62.106,20 L60.394,20 L60.394,14.192 C60.394,13.6799974 60.3700002,13.2640016 60.322,12.944 C60.2739997,12.6239984 60.2020005,12.3573344 60.106,12.144 L61.706,11.696 C61.8660008,11.9520013 61.9619998,12.2986645 61.994,12.736 C62.3140016,12.4053317 62.6579981,12.1520009 63.026,11.976 C63.3940018,11.7999991 63.7646648,11.712 64.138,11.712 C64.5006685,11.712 64.8393317,11.7919992 65.154,11.952 C65.4686682,12.1120008 65.7753318,12.4266643 66.074,12.896 C66.4686686,12.4906646 66.8606647,12.192001 67.25,12 C67.6393353,11.807999 68.0526645,11.712 68.49,11.712 C69.1620033,11.712 69.6819981,11.8959982 70.05,12.264 C70.4180018,12.6320018 70.602,13.2373291 70.602,14.08 L70.602,20 L68.874,20 Z M78.248,20.336 C78.0026654,20.2399995 77.7813343,20.0986676 77.584,19.912 C77.3866657,19.7253324 77.2400005,19.5040013 77.144,19.248 C76.8133317,19.6213352 76.4693351,19.8799993 76.112,20.024 C75.7546649,20.1680007 75.3573355,20.24 74.92,20.24 C73.9919953,20.24 73.3120021,20.010669 72.88,19.552 C72.4479978,19.093331 72.232,18.5120035 72.232,17.808 C72.232,16.8693286 72.5733299,16.1653357 73.256,15.696 C73.9386701,15.2266643 74.9306601,14.992 76.232,14.992 L76.776,14.992 L76.776,14.56 C76.776,14.0906643 76.709334,13.7360012 76.576,13.496 C76.442666,13.2559988 76.1360024,13.136 75.656,13.136 C75.3999987,13.136 75.1413346,13.1759996 74.88,13.256 C74.6186653,13.3360004 74.3760011,13.4266662 74.152,13.528 C73.9279989,13.6293338 73.7360008,13.7333328 73.576,13.84 L73.24,14.064 L72.456,12.8 C73.064003,12.4159981 73.6373306,12.1360009 74.176,11.96 C74.7146693,11.7839991 75.2879969,11.696 75.896,11.696 C77.1760064,11.696 77.9973315,12.1439955 78.36,13.04 C78.3920001,13.1253338 78.4186665,13.2213328 78.44,13.328 C78.4613334,13.4346672 78.4746666,13.5626659 78.48,13.712 C78.4853333,13.8613341 78.488,14.0426656 78.488,14.256 L78.488,15.024 L78.456,17.344 C78.456,17.6213347 78.4613333,17.8533324 78.472,18.04 C78.4826667,18.2266676 78.5146664,18.3893326 78.568,18.528 C78.6213336,18.6666674 78.6933329,18.7893328 78.784,18.896 C78.8746671,19.0026672 78.9999992,19.1093328 79.16,19.216 L78.248,20.336 Z M76.744,16.192 C76.7226665,16.192 76.6773337,16.1893334 76.608,16.184 C76.5386663,16.1786666 76.4773336,16.176 76.424,16.176 C75.9866645,16.176 75.6213348,16.2079997 75.328,16.272 C75.0346652,16.3360003 74.8000009,16.4319994 74.624,16.56 C74.4479991,16.6880006 74.322667,16.847999 74.248,17.04 C74.1733329,17.232001 74.136,17.4559987 74.136,17.712 C74.136,18.0960019 74.2346657,18.3999989 74.432,18.624 C74.6293343,18.8480011 74.9039982,18.96 75.256,18.96 C75.5333347,18.96 75.7999987,18.8826674 76.056,18.728 C76.3120013,18.5733326 76.5306657,18.3680013 76.712,18.112 L76.744,16.192 Z M85.254,20 L85.254,14.624 C85.254,14.0693306 85.1846673,13.696001 85.046,13.504 C84.9073326,13.311999 84.667335,13.216 84.326,13.216 C84.0699987,13.216 83.7766683,13.3013325 83.446,13.472 C83.1153317,13.6426675 82.816668,13.861332 82.55,14.128 L82.55,20 L80.822,20 L80.822,14.048 C80.822,13.6213312 80.8006669,13.2666681 80.758,12.984 C80.7153331,12.7013319 80.6353339,12.4160014 80.518,12.128 L82.118,11.68 C82.2140005,11.8613342 82.2859997,12.0453324 82.334,12.232 C82.3820002,12.4186676 82.406,12.6186656 82.406,12.832 C82.8433355,12.4586648 83.2566647,12.1786676 83.646,11.992 C84.0353353,11.8053324 84.4486645,11.712 84.886,11.712 C85.5153365,11.712 86.0246647,11.8986648 86.414,12.272 C86.8033353,12.6453352 86.998,13.2053296 86.998,13.952 L86.998,20 L85.254,20 Z M98.356,20 L97.844,13.136 C97.8333333,12.9653325 97.8226667,12.784001 97.812,12.592 C97.8013333,12.399999 97.7933333,12.2160009 97.788,12.04 C97.7826666,11.8639991 97.7773333,11.7040007 97.772,11.56 C97.7666666,11.4159993 97.764,11.3013338 97.764,11.216 C97.7213331,11.3973342 97.6653337,11.650665 97.596,11.976 C97.5266663,12.301335 97.4386672,12.6399982 97.332,12.992 L95.316,20 L93.748,20 L91.908,13.296 C91.8546664,13.1146658 91.8040002,12.920001 91.756,12.712 C91.7079997,12.503999 91.6626669,12.304001 91.62,12.112 C91.5773331,11.919999 91.5346669,11.7440008 91.492,11.584 C91.4599998,11.4666661 91.4386667,11.3600005 91.428,11.264 C91.428,11.3493338 91.4226667,11.4613326 91.412,11.6 C91.412,11.7600008 91.4066667,11.9386657 91.396,12.136 C91.3853333,12.3333343 91.3720001,12.535999 91.356,12.744 C91.3399999,12.952001 91.3266667,13.1413325 91.316,13.312 L90.836,20 L89.028,20 L90.036,8.928 L92.484,8.928 L94.18,15.2 C94.3080006,15.6693357 94.401333,16.0586651 94.46,16.368 C94.5186669,16.6773349 94.5639998,16.9119992 94.596,17.072 C94.6173334,16.9013325 94.6599997,16.6506683 94.724,16.32 C94.798667,15.978665 94.8893328,15.6160019 94.996,15.232 L96.74,8.928 L99.188,8.928 L100.164,20 L98.356,20 Z M102.194,20 L102.194,12.032 L103.97,11.712 L103.97,20 L102.194,20 Z M104.258,9.536 C104.258,9.8560016 104.143334,10.1306655 103.914,10.36 C103.684665,10.5893345 103.404668,10.704 103.074,10.704 C102.753998,10.704 102.484668,10.5893345 102.266,10.36 C102.047332,10.1306655 101.938,9.8560016 101.938,9.536 C101.938,9.20533168 102.049999,8.92533448 102.274,8.696 C102.498001,8.46666552 102.775332,8.352 103.106,8.352 C103.415335,8.352 103.684665,8.46399888 103.914,8.688 C104.143334,8.91200112 104.258,9.19466496 104.258,9.536 Z M109.072,19.984 C108.751998,20.1120006 108.400002,20.176 108.016,20.176 C107.567998,20.176 107.224001,20.0880009 106.984,19.912 C106.743999,19.7359991 106.568001,19.5280012 106.456,19.288 C106.343999,19.0479988 106.28,18.7973346 106.264,18.536 C106.248,18.2746654 106.24,18.0586675 106.24,17.888 L106.24,10.992 C106.24,10.7146653 106.237333,10.4666678 106.232,10.248 C106.226667,10.0293322 106.216,9.82933424 106.2,9.648 C106.184,9.46666576 106.168,9.29333416 106.152,9.128 C106.136,8.96266584 106.112,8.79466752 106.08,8.624 L107.888,8.224 C107.952,8.46933456 107.992,8.76799824 108.008,9.12 C108.024,9.47200176 108.032,9.914664 108.032,10.448 L108.032,17.312 C108.032,17.5893347 108.034667,17.8106658 108.04,17.976 C108.045333,18.1413342 108.056,18.2746662 108.072,18.376 C108.088,18.4773338 108.106667,18.557333 108.128,18.616 C108.149333,18.674667 108.176,18.7253331 108.208,18.768 C108.261334,18.842667 108.343999,18.8959998 108.456,18.928 C108.568001,18.9600002 108.677333,18.9493336 108.784,18.896 L109.072,19.984 Z M113.054,19.984 C112.733998,20.1120006 112.382002,20.176 111.998,20.176 C111.549998,20.176 111.206001,20.0880009 110.966,19.912 C110.725999,19.7359991 110.550001,19.5280012 110.438,19.288 C110.325999,19.0479988 110.262,18.7973346 110.246,18.536 C110.23,18.2746654 110.222,18.0586675 110.222,17.888 L110.222,10.992 C110.222,10.7146653 110.219333,10.4666678 110.214,10.248 C110.208667,10.0293322 110.198,9.82933424 110.182,9.648 C110.166,9.46666576 110.15,9.29333416 110.134,9.128 C110.118,8.96266584 110.094,8.79466752 110.062,8.624 L111.87,8.224 C111.934,8.46933456 111.974,8.76799824 111.99,9.12 C112.006,9.47200176 112.014,9.914664 112.014,10.448 L112.014,17.312 C112.014,17.5893347 112.016667,17.8106658 112.022,17.976 C112.027333,18.1413342 112.038,18.2746662 112.054,18.376 C112.07,18.4773338 112.088667,18.557333 112.11,18.616 C112.131333,18.674667 112.158,18.7253331 112.19,18.768 C112.243334,18.842667 112.325999,18.8959998 112.438,18.928 C112.550001,18.9600002 112.659333,18.9493336 112.766,18.896 L113.054,19.984 Z M115.82,16.432 L115.82,16.56 C115.82,16.8373347 115.849333,17.1146653 115.908,17.392 C115.966667,17.6693347 116.073333,17.9173322 116.228,18.136 C116.382667,18.3546678 116.587999,18.530666 116.844,18.664 C117.100001,18.797334 117.425331,18.864 117.82,18.864 C118.545337,18.864 119.21733,18.597336 119.836,18.064 L120.524,19.136 C119.681329,19.8506702 118.710672,20.208 117.612,20.208 C117.035997,20.208 116.518669,20.1093343 116.06,19.912 C115.601331,19.7146657 115.212002,19.4320018 114.892,19.064 C114.571998,18.6959982 114.324001,18.2506693 114.148,17.728 C113.971999,17.2053307 113.884,16.6186699 113.884,15.968 C113.884,15.2533298 113.963999,14.6480025 114.124,14.152 C114.284001,13.6559975 114.539998,13.2053354 114.892,12.8 C115.222668,12.4266648 115.590665,12.1520009 115.996,11.976 C116.401335,11.7999991 116.859997,11.712 117.372,11.712 C117.777335,11.712 118.163998,11.7733327 118.532,11.896 C118.900002,12.0186673 119.254665,12.2346651 119.596,12.544 C119.948002,12.8640016 120.211999,13.2959973 120.388,13.84 C120.564001,14.3840027 120.652,15.1253286 120.652,16.064 L120.652,16.432 L115.82,16.432 Z M118.828,15.136 C118.828,14.4746634 118.697335,13.9600018 118.436,13.592 C118.174665,13.2239982 117.820002,13.04 117.372,13.04 C116.870664,13.04 116.489335,13.2239982 116.228,13.592 C115.966665,13.9600018 115.836,14.4746634 115.836,15.136 L118.828,15.136 Z M126.138,13.44 C126.052666,13.4079998 125.972667,13.3813334 125.898,13.36 C125.823333,13.3386666 125.738,13.328 125.642,13.328 C125.268665,13.328 124.943335,13.4453322 124.666,13.68 C124.388665,13.9146678 124.207334,14.1973317 124.122,14.528 L124.122,20 L122.362,20 L122.362,14.288 C122.362,13.7759974 122.335334,13.3466684 122.282,13 C122.228666,12.6533316 122.159334,12.3573346 122.074,12.112 L123.69,11.696 C123.892668,12.0800019 123.994,12.5066643 123.994,12.976 C124.314002,12.5279978 124.639332,12.200001 124.97,11.992 C125.300668,11.783999 125.663331,11.68 126.058,11.68 C126.292668,11.68 126.500666,11.7226662 126.682,11.808 L126.138,13.44 Z"></path>
                <path class="logo" d="M28,14.018191 C28,17.8761635 26.6338023,21.1691019 23.901778,23.9018324 C21.170125,26.6334491 17.875658,28 14.0183768,28 C10.1622095,28 6.86068867,26.6334491 4.1164132,23.9018324 C1.37250898,21.1691019 0,17.8761635 0,14.018191 C0,10.160961 1.37250898,6.8605977 4.1164132,4.11598738 C6.86068867,1.3717483 10.1622095,0 14.0183768,0 C17.875658,0 21.170125,1.3717483 23.901778,4.11598738 C26.6338023,6.8605977 28,10.160961 28,14.018191 M21.8060752,21.3610352 L21.8060752,6.71209992 L21.5469432,6.71209992 C21.2250699,9.23433481 20.719057,11.3853252 20.101298,13.1661849 C18.6664192,17.4915542 16.6390263,19.6551669 14.0183768,19.6551669 C11.3980987,19.6551669 9.35771204,17.4915542 7.89944445,13.1661849 C7.28094297,11.3853252 6.8113125,9.23433481 6.49018178,6.71209992 L6.22993596,6.71209992 L6.22993596,21.3610352 C8.57883083,20.6686643 11.1760915,20.3226645 14.0183768,20.3226645 C16.8369022,20.3226645 19.4334204,20.6686643 21.8060752,21.3610352"></path>
            </g>
  </svg>