<svg class="logo-genos" xmlns="http://www.w3.org/2000/svg" xmlns:xlink="http://www.w3.org/1999/xlink" viewBox="0 0 360.73 118.82"><defs><linearGradient id="linear-gradient" x1="817.61" y1="-429.72" x2="876.43" y2="-359.63" gradientTransform="matrix(1, 0, 0, -1, -780, -361)" gradientUnits="userSpaceOnUse"><stop offset="0" stop-color="#420c60"/><stop offset="0.59" stop-color="#263b97"/><stop offset="1" stop-color="#3e828a"/></linearGradient><linearGradient id="linear-gradient-2" x1="781.81" y1="-387.14" x2="853.76" y2="-387.14" gradientTransform="matrix(1, 0, 0, -1, -780, -361)" gradientUnits="userSpaceOnUse"><stop offset="0" stop-color="#420c60"/><stop offset="0.2" stop-color="#3c166c"/><stop offset="0.57" stop-color="#2c308b"/><stop offset="0.69" stop-color="#263b97"/><stop offset="1" stop-color="#3e828a"/></linearGradient><linearGradient id="linear-gradient-3" x1="-310.34" y1="-1026.43" x2="-284.01" y2="-1057.81" gradientTransform="matrix(-0.71, -0.71, -0.71, 0.71, -897.05, 619.62)" gradientUnits="userSpaceOnUse"><stop offset="0" stop-color="#420c60"/><stop offset="0.66" stop-color="#263b97"/><stop offset="1" stop-color="#3e828a"/></linearGradient><linearGradient id="linear-gradient-4" x1="947.12" y1="-1026.84" x2="1022.38" y2="-963.7" gradientTransform="matrix(0.71, -0.71, -0.71, -0.71, -1376.21, 36.76)" xlink:href="#linear-gradient-3"/><linearGradient id="linear-gradient-5" x1="626.2" y1="-1598.1" x2="847.05" y2="-1617.42" gradientTransform="matrix(0, -1, -1, 0, -1516.13, 740.38)" xlink:href="#linear-gradient"/><linearGradient id="linear-gradient-6" x1="781.82" y1="-446.82" x2="826.47" y2="-402.18" gradientTransform="matrix(1, 0, 0, -1, -780, -361)" gradientUnits="userSpaceOnUse"><stop offset="0" stop-color="#420c60"/><stop offset="0.17" stop-color="#410e63"/><stop offset="0.29" stop-color="#3c166c"/><stop offset="0.39" stop-color="#34237b"/><stop offset="0.49" stop-color="#293590"/><stop offset="0.51" stop-color="#263b97"/><stop offset="0.9" stop-color="#39728d"/><stop offset="1" stop-color="#3e828a"/></linearGradient></defs><title>icon-genos</title><g class="logotype"><path d="M164.16,84.78a2.56,2.56,0,0,1-1.44-2.3A2.64,2.64,0,0,1,165.24,80a2.22,2.22,0,0,1,1.22.36,23.49,23.49,0,0,0,13.17,4c8.2,0,13.52-4.53,13.52-13.24V66.76c-3.24,4.32-7.77,7.84-14.61,7.84-8.92,0-17.48-6.69-17.48-17.41v-.14a17.61,17.61,0,0,1,32-10.07V42.74a2.75,2.75,0,0,1,2.69-2.81h0a2.81,2.81,0,0,1,2.8,2.81V71c0,5.76-1.73,10.14-4.75,13.17-3.31,3.31-8.27,5-14.17,5A29.1,29.1,0,0,1,164.16,84.78ZM193.3,57.16V57c0-7.62-6.62-12.59-13.67-12.59s-12.88,4.89-12.88,12.52v.14a12.59,12.59,0,0,0,12.52,12.66h.36c7,0,13.66-5.1,13.66-12.58Z" transform="translate(-0.01)" style="fill:#442b79"/><path d="M249.62,42.76A2.8,2.8,0,0,1,252.35,40a2.76,2.76,0,0,1,2.81,2.71s0,.07,0,.1v4a14.09,14.09,0,0,1,12.73-7.27c9,0,14.24,6,14.24,14.89V75a2.77,2.77,0,0,1-5.54,0V55.79c0-6.91-3.74-11.22-10.29-11.22s-11.15,4.68-11.15,11.65V75.07a2.71,2.71,0,0,1-2.61,2.81h-.12a2.76,2.76,0,0,1-2.81-2.71s0-.07,0-.1Z" transform="translate(-0.01)" style="fill:#442b79"/><path d="M288.38,59.09V59a19.39,19.39,0,0,1,38.78-.14h0V59A19.31,19.31,0,0,1,308,78.38h-.31a19.06,19.06,0,0,1-19.28-18.84Q288.38,59.32,288.38,59.09Zm33.1,0V59c0-8-6-14.53-13.81-14.53-8.06,0-13.6,6.55-13.6,14.39V59c0,8,5.9,14.46,13.74,14.46C315.87,73.41,321.48,66.94,321.48,59.09Z" transform="translate(-0.01)" style="fill:#442b79"/><path d="M333.17,73.55a2.5,2.5,0,0,1-1-2,2.41,2.41,0,0,1,2.44-2.37,2.21,2.21,0,0,1,1.37.43,20.91,20.91,0,0,0,11.8,4c4.46,0,7.7-2.3,7.7-5.9v-.14c0-3.74-4.39-5.18-9.28-6.55-5.83-1.65-12.3-3.67-12.3-10.5v-.14c0-6.4,5.33-10.65,12.66-10.65a25.9,25.9,0,0,1,11.87,3.17,2.69,2.69,0,0,1,1.37,2.3,2.41,2.41,0,0,1-2.45,2.37h0a2.8,2.8,0,0,1-1.22-.29,20.13,20.13,0,0,0-9.71-2.88c-4.39,0-7.19,2.3-7.19,5.4v.14c0,3.52,4.6,4.89,9.57,6.4,5.76,1.73,11.94,4,11.94,10.65v.14c0,7-5.83,11.15-13.24,11.15A25.74,25.74,0,0,1,333.17,73.55Z" transform="translate(-0.01)" style="fill:#442b79"/><path d="M239.23,61a2.58,2.58,0,0,0,2.59-2.57v0c0-9.86-6.26-18.85-17.26-18.85-10.29,0-17.84,8.63-17.84,19.35V59c0,11.51,8.35,19.35,18.56,19.35a18.91,18.91,0,0,0,14-5.61,2.38,2.38,0,0,0,.86-1.8,2.41,2.41,0,0,0-2.44-2.37,2.44,2.44,0,0,0-1.58.65,15.19,15.19,0,0,1-10.72,4.32,12.59,12.59,0,0,1-11.73-7.42,15.39,15.39,0,0,1-1.53-7,18.3,18.3,0,0,1,.34-3.55.46.46,0,0,0,0-.07l.07-.33c1.27-6.38,5.87-10.94,11.82-10.94,7.41,0,11.29,5.9,11.87,12.66H224.6a2,2,0,1,0,0,4.09h14.59Z" transform="translate(-0.01)" style="fill:#442b79"/><circle cx="225.1" cy="58.95" r="2.05" style="fill:#442b79"/></g><g class="logo"><path d="M27.84,26c-.23,2.79,0,5.62,0,8.43s.39,5.57.56,8.35h0C29.4,49.4,31,56.2,35,61.87a23,23,0,0,0,7.7,7,25.66,25.66,0,0,0,10.15,2.79c7.06.59,14-1.09,20.46-3.22a109.33,109.33,0,0,0,13.87-5.75q2.49-1.22,4.94-2.53c6-3.21,11.84-6.8,17.51-10.56l1.48-1c2-1.38,4.06-2.81,6.06-4.26a59.09,59.09,0,0,0-4-10.82q-1.48,1.07-2.9,2.25l-3.18,2.82-3.49,3c-.87.74-1.75,1.47-2.63,2.2-4.16,3.45-8.41,6.78-12.84,9.86a114.5,114.5,0,0,1-16.76,9.92C65.57,66.3,59.32,68.35,53,68.46a22.19,22.19,0,0,1-9.15-1.86,20.13,20.13,0,0,1-7.31-5.91c-3.9-5.16-5.7-11.7-6.79-18.16-.16-2.77-.51-5.55-.5-8.29A79.2,79.2,0,0,1,29.47,26c.3-2.77.37-5.52.85-8.26s.76-5.48,1.35-8.19c.17-1,.37-2,.57-3q-1.49.78-2.93,1.63-.07.49-.13,1C28.45,14.81,28.08,20.41,27.84,26Z" transform="translate(-0.01)" style="fill:url(#linear-gradient)"/><path d="M8.25,48.91c.93.35,1.86.74,2.83,1.06l3,.77a18.67,18.67,0,0,0,3.06.59c1,.14,2.08.28,3.14.37s2.12.06,3.19.07H26.9A46.18,46.18,0,0,0,33,50.67c1.11-.29,2.28-.54,3.32-.92l3.09-1.19a26.21,26.21,0,0,0,3-1.4,30,30,0,0,0,2.91-1.58,61.55,61.55,0,0,0,10.48-8,70.3,70.3,0,0,0,8.55-10.1,63.32,63.32,0,0,0,6.19-12A59.81,59.81,0,0,0,73.76,2V1.91A59.27,59.27,0,0,0,65.6.5V.59l.14.8.07.4V2a38.44,38.44,0,0,1-.51,11.94A35.64,35.64,0,0,1,60.62,25,32.14,32.14,0,0,1,42.1,38.57a23.39,23.39,0,0,1-2.69.63,20.58,20.58,0,0,1-2.67.47L34.1,40c-.87.08-1.66,0-2.46,0-1.42.1-3.55-.07-5.42-.13h-.4l-.61-.09L24,39.57c-.8-.12-1.6-.13-2.38-.31A63.13,63.13,0,0,1,5.81,34.2a58.81,58.81,0,0,0-4,11.53,9.3,9.3,0,0,0,1.17.7A36.55,36.55,0,0,0,8.25,48.91Z" transform="translate(-0.01)" style="fill:url(#linear-gradient-2)"/><circle cx="59.45" cy="59.41" r="59.41" style="fill:none"/><path d="M13.75,96.17l.24-.33.12-.17.06-.08s.18-.2-.08.06a38.56,38.56,0,0,1,8.8-8.08A35.57,35.57,0,0,1,34.06,83a32.11,32.11,0,0,1,22.66,3.52A22.82,22.82,0,0,1,59.07,88a20.4,20.4,0,0,1,2.22,1.55l2.07,1.67c.67.55,1.17,1.16,1.77,1.7,1.07.93,2.46,2.56,3.73,3.92l.24.26.12.13.06.06c.07.07-.38-.35-.17-.14l.37.49.73,1c.48.65,1,1.23,1.47,1.9a63,63,0,0,1,7.6,14.76,59.07,59.07,0,0,0,11-5.29,9.68,9.68,0,0,0-.33-1.33,37.09,37.09,0,0,0-1.88-5.56c-.42-.91-.79-1.85-1.26-2.75l-1.56-2.65a18.77,18.77,0,0,0-1.75-2.58c-.64-.83-1.28-1.67-2-2.48S80,91.09,79.29,90.32l-1.16-1.11-.58-.56-.29-.28-.07-.06L77,88.2,76.77,88a45.64,45.64,0,0,0-5.06-3.51c-1-.58-2-1.23-3-1.69l-3-1.34a25.79,25.79,0,0,0-3.11-1.13,28.89,28.89,0,0,0-3.17-.94,61.4,61.4,0,0,0-13.09-1.73,70,70,0,0,0-13.19,1.09,63.72,63.72,0,0,0-12.84,4.08A59.65,59.65,0,0,0,8.46,90.05l-.06.06a57.74,57.74,0,0,0,4.79,6.65" transform="translate(-0.01)" style="fill:url(#linear-gradient-3)"/><circle cx="59.45" cy="59.41" r="59.41" style="fill:none"/><path d="M15.58,88.25c.91-.41,1.85-.79,2.75-1.25L21,85.44a18.59,18.59,0,0,0,2.58-1.75c.83-.64,1.67-1.28,2.48-2s1.54-1.46,2.31-2.21l1.11-1.16.56-.58.27-.29,0-.07.11-.14.22-.28a46.12,46.12,0,0,0,3.5-5.06c.58-1,1.23-2,1.69-3l1.35-3a26.32,26.32,0,0,0,1.13-3.12,29,29,0,0,0,.94-3.18A61.54,61.54,0,0,0,41,46.54a70.43,70.43,0,0,0-1.09-13.19,63.5,63.5,0,0,0-4.08-12.84A59.66,59.66,0,0,0,28.59,8.66l-.06,0a59.38,59.38,0,0,0-6.77,4.77h.07l.66.47.33.24.17.12.08.06s.2.18-.06-.08A38.43,38.43,0,0,1,31.09,23a35.6,35.6,0,0,1,4.54,11.16,32.15,32.15,0,0,1-3.52,22.66,23.89,23.89,0,0,1-1.46,2.35,20.56,20.56,0,0,1-1.55,2.22l-1.67,2.07c-.55.67-1.17,1.17-1.7,1.77-.93,1.07-2.56,2.46-3.92,3.73l-.26.25-.13.12-.07.06c-.07.07.36-.38.15-.17l-.5.37-1,.73c-.65.48-1.23,1-1.9,1.46a63.16,63.16,0,0,1-14.76,7.6,59,59,0,0,0,5.29,11A8.84,8.84,0,0,0,10,90,36.54,36.54,0,0,0,15.58,88.25Z" transform="translate(-0.01)" style="fill:url(#linear-gradient-4)"/><circle cx="59.45" cy="59.41" r="59.41" style="fill:none"/><path d="M84.94,39.18C83.11,50.36,65,82.5,82.79,85.18c8.15.87,24.69-6.36,33.41-8.26a59.51,59.51,0,0,0,2.57-17.35v-.66q-2.86,1.74-5.73,3.45c-3.77,2.23-29,20.24-34,14.28C75.45,73,84.25,52.55,87.53,40.17c.06-.24,1.39-4.5,1.39-4.7,5.19-15.19-3.58-24-12.49-33.38A71.27,71.27,0,0,0,59.7,0C73.24,11.55,88,23.63,84.94,39.18Z" transform="translate(-0.01)" style="fill:url(#linear-gradient-5)"/><circle cx="59.45" cy="59.41" r="59.41" style="fill:none"/><circle cx="59.45" cy="59.41" r="59.41" style="fill:none"/><circle cx="59.45" cy="59.41" r="59.41" style="fill:none"/><path d="M36.23,103.45C52.34,93.78,21.52,81,13.94,69,6.58,57.35,7.15,51.24,11.85,32.75,13.66,25.6,17,20.64,20.21,14.92a59.87,59.87,0,0,0-8.32,9l-.28.37-.49.67-.64.91-.12.17Q9.09,27.9,7.95,29.87A59.61,59.61,0,0,0,2.57,42.2a.33.33,0,0,1-.08.26c-.11.35-.21.7-.31,1.06l-.2.73-.16.59c-.1.4-.2.8-.29,1.21v.12A59.71,59.71,0,0,0,0,59.57q0,2.29.17,4.54c.17,2.25,0,.09,0,.13,0,.4.07.79.1,1.18s0,.51.08.76a2.33,2.33,0,0,0,.06.52A59.71,59.71,0,0,0,7.31,88.15l.1.19.54,1,.55.93.12.19A63.2,63.2,0,0,0,23.71,106.9l.67.49C31.41,106.3,33.82,104.9,36.23,103.45Z" transform="translate(-0.01)" style="fill:url(#linear-gradient-6)"/></g></svg>