 <svg class="featured__svg" viewBox="0 0 200 200" version="1.1" xmlns="http://www.w3.org/2000/svg" xmlns:xlink="http://www.w3.org/1999/xlink">
                    <linearGradient x1="11.078547%" y1="95.3740086%" x2="76.8196212%" y2="-12.0117627%" id="linearGradient-1">
                      <stop stop-color="#420C60" offset="0%"></stop>
                      <stop stop-color="#263B97" offset="59%"></stop>
                      <stop stop-color="#3E828A" offset="100%"></stop>
                    </linearGradient>
                    <linearGradient x1="-0.0138985407%" y1="49.8732202%" x2="99.9583044%" y2="49.8732202%" id="linearGradient-2">
                      <stop stop-color="#420C60" offset="0%"></stop>
                      <stop stop-color="#3C166C" offset="20%"></stop>
                      <stop stop-color="#2C308B" offset="57%"></stop>
                      <stop stop-color="#263B97" offset="69%"></stop>
                      <stop stop-color="#3E828A" offset="100%"></stop>
                    </linearGradient>
                    <linearGradient x1="48.6370857%" y1="94.6843122%" x2="52.9982108%" y2="-13.7436974%" id="linearGradient-3">
                      <stop stop-color="#420C60" offset="0%"></stop>
                      <stop stop-color="#263B97" offset="66%"></stop>
                      <stop stop-color="#3E828A" offset="100%"></stop>
                    </linearGradient>
                    <linearGradient x1="151472%" y1="15672.2482%" x2="158998%" y2="14332.2828%" id="linearGradient-4">
                      <stop stop-color="#420C60" offset="0%"></stop>
                      <stop stop-color="#263B97" offset="66%"></stop>
                      <stop stop-color="#3E828A" offset="100%"></stop>
                    </linearGradient>
                    <linearGradient x1="188520%" y1="68155.4452%" x2="210605%" y2="69082.9774%" id="linearGradient-5">
                      <stop stop-color="#420C60" offset="0%"></stop>
                      <stop stop-color="#263B97" offset="59%"></stop>
                      <stop stop-color="#3E828A" offset="100%"></stop>
                    </linearGradient>
                    <linearGradient x1="4.45901297%" y1="76.6627014%" x2="113.827244%" y2="28.3983995%" id="linearGradient-6">
                      <stop stop-color="#420C60" offset="0%"></stop>
                      <stop stop-color="#410E63" offset="17%"></stop>
                      <stop stop-color="#3C166C" offset="29%"></stop>
                      <stop stop-color="#34237B" offset="39%"></stop>
                      <stop stop-color="#293590" offset="49%"></stop>
                      <stop stop-color="#263B97" offset="51%"></stop>
                      <stop stop-color="#39728D" offset="90%"></stop>
                      <stop stop-color="#3E828A" offset="100%"></stop>
                    </linearGradient>
                    </defs>
                    <g id="Images" stroke="none" stroke-width="1" fill="none" fill-rule="evenodd">
                      <g id="Genos" fill-rule="nonzero">
                        <g transform="translate(47.000000, 49.000000)" id="Shape">
                          <path d="M24.7986555,23.1596639 C24.5937815,25.6448739 24.7986555,28.1657143 24.7986555,30.6687395 C24.7986555,33.1717647 25.1460504,35.6302521 25.297479,38.1065546 L25.297479,38.1065546 C26.1882353,44.0033613 27.6134454,50.0605042 31.2121008,55.1110924 C32.9919878,57.6862285 35.3383109,59.8192496 38.0709244,61.3463866 C40.8805234,62.7906893 43.9590153,63.6368954 47.1121008,63.8315966 C53.4008403,64.3571429 59.5381513,62.8606723 65.3369748,60.9633613 C69.5677341,59.5411907 73.6957276,57.829874 77.6917647,55.8415126 C79.1704202,55.1170308 80.6371989,54.3658263 82.0921008,53.5878992 C87.4366387,50.7285714 92.6386555,47.5307563 97.6892437,44.1815126 C98.1346218,43.887563 98.58,43.5847059 99.007563,43.2907563 C100.833613,42.0615126 102.624034,40.7877311 104.405546,39.4961345 C103.535056,36.1749546 102.341696,32.9469152 100.842521,29.8581513 C99.9636415,30.4935574 99.102577,31.1616246 98.2593277,31.8623529 L95.4267227,34.3742857 L92.3179832,37.0465546 C91.5430252,37.7057143 90.7591597,38.3559664 89.9752941,39.0062185 C86.2697479,42.0793277 82.4840336,45.0455462 78.5379832,47.7890756 C73.8216103,51.1531561 68.8271895,54.1092811 63.6089076,56.6253782 C58.4068908,59.0571429 52.8396639,60.8831933 47.1922689,60.9811765 C44.3887036,61.013218 41.6103995,60.448448 39.0418487,59.3243697 C36.4863252,58.108053 34.2550157,56.3040805 32.5304202,54.06 C29.0564706,49.4636975 27.4531092,43.6381513 26.4821849,37.8838655 C26.3396639,35.4164706 26.0278992,32.9401681 26.0368067,30.4994958 C26.0457143,28.0588235 25.9833613,25.5914286 26.2505882,23.1240336 C26.5178151,20.6566387 26.5801681,18.2070588 27.0077311,15.7663866 C27.4352941,13.3257143 27.6847059,10.885042 28.2102521,8.47109244 C28.3616807,7.58033613 28.5398319,6.68957983 28.7179832,5.79882353 C27.8331653,6.26201681 26.9631933,6.7459944 26.1080672,7.2507563 C26.0664986,7.54173669 26.0278992,7.83865546 25.9922689,8.14151261 C25.3420168,13.1921008 25.012437,18.1803361 24.7986555,23.1596639 Z"
                            fill="url(#linearGradient-1)"></path>
                          <path d="M7.3487395,43.5668908 C8.17714286,43.8786555 9.00554622,44.2260504 9.86957983,44.5110924 L12.5418487,45.1969748 C13.4341864,45.4478117 14.3459332,45.623606 15.267563,45.722521 C16.1583193,45.8472269 17.1203361,45.9719328 18.0645378,46.0521008 C19.0087395,46.1322689 19.9529412,46.1055462 20.9060504,46.1144538 L22.3401681,46.1144538 L23.0527731,46.1144538 L23.4892437,46.1144538 L23.6495798,46.1144538 L23.9613445,46.1144538 C25.7804718,45.9083289 27.5838091,45.5809904 29.3593277,45.1346218 C30.3480672,44.8763025 31.3902521,44.6536134 32.3166387,44.3151261 L35.0690756,43.2551261 C35.9852209,42.8961671 36.8777571,42.4796502 37.7413445,42.0080672 C38.6306293,41.5870138 39.4959808,41.1171667 40.3334454,40.6006723 C43.6913215,38.5664106 46.8209809,36.1773577 49.6685714,33.4746218 C52.4844954,30.7219142 55.0344482,27.7096893 57.2845378,24.4779832 C59.4981898,21.1216633 61.3466236,17.5382699 62.7983193,13.7889076 C64.2292802,9.9097265 65.2037942,5.87715147 65.7021849,1.77260504 L65.7021849,1.70134454 C63.311573,1.11373903 60.8827895,0.694059528 58.4336134,0.445378151 L58.4336134,0.525546218 L58.5583193,1.23815126 L58.6206723,1.59445378 L58.6206723,1.77260504 L58.6206723,1.86168067 C58.6206723,1.80823529 58.6206723,2.09327731 58.6206723,1.77260504 C59.0246377,5.31981885 58.8713571,8.9083881 58.1663866,12.4082353 C57.3488517,15.919792 55.9391084,19.2664263 53.9976471,22.3045378 C50.1680522,28.2139861 44.2948399,32.5047292 37.5008403,34.3564706 C36.7138891,34.5905986 35.913781,34.7779845 35.1047059,34.9176471 C34.3219962,35.1093209 33.5274997,35.2491761 32.7263866,35.3363025 L30.3747899,35.5946218 C29.5998319,35.6658824 28.8961345,35.5946218 28.1835294,35.5946218 C26.9186555,35.6836975 25.0213445,35.5322689 23.3556303,35.4788235 L22.8033613,35.4788235 C22.7142857,35.4788235 23.2665546,35.4788235 22.9993277,35.4788235 L22.4559664,35.3986555 L21.3781513,35.2472269 C20.6655462,35.1403361 19.9529412,35.1314286 19.2581513,34.9710924 C14.3859389,34.0951027 9.65072695,32.5795953 5.17529412,30.4638655 C3.63465554,33.7545093 2.4405526,37.196511 1.61226891,40.7342857 C1.94394014,40.9673479 2.29227092,41.1757509 2.65445378,41.3578151 C4.15796027,42.2178749 5.72770486,42.9565783 7.3487395,43.5668908 Z"
                            fill="url(#linearGradient-2)"></path>
                          <path d="M12.2478992,85.6640336 L12.4616807,85.370084 L12.5685714,85.2186555 L12.6220168,85.147395 C12.6220168,85.147395 12.7823529,84.9692437 12.5507563,85.2008403 C14.7738678,82.40908 17.4184865,79.9808392 20.3894118,78.0035294 C23.4499035,76.0897598 26.8149115,74.7130287 30.3391597,73.9327731 C37.2239221,72.457899 44.4107881,73.5743054 50.5236975,77.0682353 C51.2468782,77.4561367 51.9459156,77.8874577 52.6169748,78.3598319 C53.3059965,78.7757349 53.9666122,79.2369756 54.5944538,79.7405042 L56.4383193,81.2280672 C57.0351261,81.7179832 57.4805042,82.2613445 58.014958,82.7423529 C58.9680672,83.5707563 60.2062185,85.0226891 61.337479,86.2341176 L61.5512605,86.4657143 L61.6581513,86.5815126 L61.7115966,86.634958 C61.7739496,86.6973109 61.3731092,86.3231933 61.5601681,86.5102521 L61.8897479,86.9467227 L62.54,87.837479 C62.967563,88.4164706 63.4307563,88.9331092 63.8494118,89.529916 C66.6760828,93.5946206 68.9524252,98.0155171 70.6191597,102.677479 C74.0392192,101.449343 77.3228512,99.8702149 80.417479,97.9653782 C80.3476057,97.564028 80.2493764,97.1681343 80.1235294,96.7806723 C79.697023,95.0881601 79.1370629,93.4321081 78.4489076,91.8280672 C78.0747899,91.017479 77.7452101,90.1801681 77.3265546,89.3784874 L75.9369748,87.0179832 C75.4819928,86.2100325 74.960587,85.4413314 74.3781513,84.7198319 C73.8080672,83.9805042 73.2379832,83.2322689 72.5966387,82.5107563 C71.9552941,81.7892437 71.2961345,81.1389916 70.6280672,80.4531092 L69.5947899,79.4643697 L69.0781513,78.9655462 L68.8198319,78.7161345 L68.757479,78.6626891 L68.6327731,78.5647059 L68.3833613,78.3687395 C66.953041,77.2262891 65.4472066,76.1817281 63.8761345,75.2421849 C62.9853782,74.7255462 62.0946218,74.1465546 61.2038655,73.7368067 L58.5315966,72.5431933 C57.6306774,72.1487214 56.705356,71.8125114 55.7613445,71.5366387 C54.8368625,71.2038767 53.8940874,70.9243156 52.9376471,70.6993277 C49.1176713,69.7680306 45.2084065,69.2513745 41.2776471,69.1583193 C37.3394137,69.1101689 33.4054763,69.435263 29.5285714,70.1292437 C25.5984175,70.9330947 21.7645564,72.1513309 18.0912605,73.7635294 C14.3336922,75.4949362 10.7912055,77.659291 7.53579832,80.212605 L7.48235294,80.2660504 C8.76249222,82.3391304 10.1883238,84.3186252 11.7490756,86.1895798"
                            fill="url(#linearGradient-3)"></path>
                          <path d="M13.8779832,78.6092437 C14.6885714,78.2440336 15.5258824,77.9055462 16.327563,77.4957983 L18.6880672,76.1062185 C19.496412,75.6518732 20.2651649,75.1304323 20.9862185,74.547395 C21.7255462,73.9773109 22.4737815,73.4072269 23.1952941,72.7658824 C23.9168067,72.1245378 24.5670588,71.4653782 25.2529412,70.7973109 L26.2416807,69.7640336 L26.7405042,69.247395 L26.9810084,68.9890756 L27.0255462,68.9267227 L27.1235294,68.8020168 L27.3194958,68.552605 C28.4578774,67.1212652 29.49941,65.6155066 30.4371429,64.0453782 C30.9537815,63.1546218 31.5327731,62.2638655 31.942521,61.3731092 L33.145042,58.7008403 C33.5386821,57.7965474 33.8748682,56.8683166 34.1515966,55.9216807 C34.4844987,54.994222 34.7640592,54.0484747 34.9889076,53.0890756 C35.9143538,49.2773008 36.4279959,45.3772045 36.5210084,41.4557983 C36.5668744,37.5176455 36.241798,33.5839231 35.550084,29.7067227 C34.7476651,25.776196 33.5293813,21.9421854 31.9157983,18.2694118 C30.1843197,14.5118818 28.0199699,10.9694032 25.4667227,7.71394958 L25.4132773,7.66941176 C23.3067016,8.94364157 21.2916621,10.3633961 19.3828571,11.9183193 L19.4452101,11.9183193 L20.0331092,12.3369748 L20.3270588,12.5507563 L20.4784874,12.6576471 L20.5497479,12.7110924 C20.5497479,12.7110924 20.7278992,12.8714286 20.4963025,12.6398319 C23.2893574,14.8615542 25.7177981,17.5063907 27.6936134,20.4784874 C29.5966203,23.5382741 30.9642122,26.9000198 31.7376471,30.4193277 C33.2091176,37.3041866 32.0929009,44.4898317 28.6021849,50.6038655 C28.209501,51.326171 27.775271,52.0251027 27.3016807,52.6971429 C26.8854063,53.3859231 26.4241824,54.0465148 25.9210084,54.6746218 L24.4334454,56.5184874 C23.9435294,57.1152941 23.3912605,57.5606723 22.9191597,58.0951261 C22.0907563,59.0482353 20.6388235,60.2863866 19.427395,61.4176471 L19.1957983,61.6403361 L19.08,61.7472269 L19.0176471,61.8006723 C18.9552941,61.8630252 19.3383193,61.4621849 19.1512605,61.6492437 L18.7058824,61.9788235 L17.8151261,62.6290756 C17.2361345,63.0566387 16.7194958,63.5198319 16.1226891,63.9295798 C12.0571234,66.7548192 7.63642275,69.0310607 2.97512605,70.6993277 C4.20284795,74.1195604 5.78199658,77.4032343 7.68722689,80.4976471 C8.08913983,80.4304653 8.48523153,80.332187 8.87193277,80.2036975 C10.5808554,79.8079782 12.2549914,79.2747569 13.8779832,78.6092437 L13.8779832,78.6092437 Z"
                            fill="url(#linearGradient-4)"></path>
                          <path d="M75.6608403,34.8998319 C74.0307563,44.8584874 57.9436975,73.487395 73.7457143,75.8746218 C81.0053782,76.6495798 95.7384874,70.2094118 103.505882,68.5169748 C105.028096,63.5067783 105.799554,58.2986859 105.795126,53.0623529 L105.795126,52.4744538 C104.096751,53.5077311 102.395406,54.5321008 100.691092,55.547563 C97.3329412,57.5339496 74.8146218,73.5764706 70.4053782,68.267563 C67.207563,65.0163025 75.0462185,46.8092437 77.9678992,35.7816807 C78.0213445,35.5678992 79.2060504,31.7732773 79.2060504,31.5951261 C83.8290756,18.0645378 76.0171429,10.2169748 68.0805042,1.86168067 C63.2042107,0.653672271 58.2017651,0.028740332 53.1781513,0 C65.2389916,10.2882353 78.3865546,21.0485714 75.6608403,34.8998319 Z"
                            fill="url(#linearGradient-5)"></path>
                          <path d="M32.2721008,92.1487395 C46.6221849,83.5351261 19.1690756,72.1957983 12.4171429,61.4889076 C5.86117647,51.0848739 6.36890756,45.6423529 10.5554622,29.1722689 C12.1677311,22.8033613 15.1428571,18.3852101 18.0021849,13.290084 C15.2640733,15.7017853 12.7806993,18.3881274 10.5910924,21.3068908 L10.3416807,21.6364706 L9.90521008,22.2332773 L9.33512605,23.0438655 L9.22823529,23.1952941 C8.47406162,24.2998319 7.75848739,25.4370308 7.08151261,26.6068908 C5.0747802,30.0753423 3.46712231,33.7598073 2.2892437,37.589916 C2.2892437,37.670084 2.2892437,37.7502521 2.21798319,37.8215126 C2.12,38.1332773 2.03092437,38.445042 1.94184874,38.7657143 L1.76369748,39.4159664 L1.62117647,39.9415126 C1.53210084,40.2978151 1.44302521,40.6541176 1.36285714,41.0193277 L1.36285714,41.1262185 C0.462236736,45.0410334 0.00802392139,49.0452779 0.00890756303,53.0623529 C0.00890756303,54.4222409 0.0593837535,55.7702521 0.160336134,57.1063866 L0.160336134,57.2221849 C0.160336134,57.5784874 0.222689076,57.9258824 0.249411765,58.2732773 C0.276134454,58.6206723 0.29394958,58.727563 0.320672269,58.9502521 C0.347394958,59.1729412 0.320672269,59.2620168 0.374117647,59.4134454 C1.18892906,66.1140973 3.27176799,72.5984071 6.51142857,78.5201681 L6.6005042,78.6894118 L7.08151261,79.5801681 L7.57142857,80.4085714 L7.67831933,80.5778151 C11.2547485,86.2177987 15.8061884,91.1764251 21.1198319,95.2218487 L21.7166387,95.6583193 C27.9786555,94.687395 30.1253782,93.4403361 32.2721008,92.1487395 Z"
                            fill="url(#linearGradient-6)"></path>
                        </g>
                      </g>
                    </g>
                  </svg>