<svg width="200px" height="200px" viewBox="0 0 200 200" version="1.1" xmlns="http://www.w3.org/2000/svg" xmlns:xlink="http://www.w3.org/1999/xlink">
    <g id="Images" stroke="none" stroke-width="1" fill="none" fill-rule="evenodd">
        <g id="Ace-Hardware" fill-rule="nonzero">
            <g transform="translate(32.000000, 58.000000)">
                <path d="M3.36358271,82.6472042 C3.39209884,82.5381361 4.17695045,78.2866806 5.10789239,73.2009424 L6.80043432,63.9530262 L9.03653755,63.9530262 C10.2666795,63.9530262 11.2730795,63.9829319 11.2730795,64.0216335 C11.2730795,64.0603351 10.9756343,65.6950366 10.611944,67.6538639 C10.247815,69.6118115 9.9499311,71.2473927 9.9499311,71.2869738 C9.9499311,71.3261152 11.471815,71.3459058 13.3315053,71.3291937 L16.7122021,71.299288 L17.3843053,67.6543037 L18.0559698,64.0075602 L20.2854924,63.9776545 C21.5121246,63.9609424 22.5154537,63.9895288 22.5154537,64.0418639 C22.5154537,64.129822 19.2795311,81.8854869 19.1435311,82.542534 L19.0807956,82.8455497 L16.8280214,82.8455497 L14.5752472,82.8455497 L14.6335956,82.5970681 C14.7467827,82.1176963 16.0120214,75.171644 16.0120214,75.0326702 C16.0120214,74.9205236 15.3083311,74.8919372 12.6528214,74.8919372 L9.29318271,74.8919372 L9.23746658,75.1404188 C9.12822787,75.6307853 7.85596981,82.6256545 7.85596981,82.7342827 C7.85596981,82.8064084 7.04260206,82.8459895 5.58389239,82.8459895 C3.4539569,82.8451099 3.31488594,82.832356 3.36358271,82.6472042 L3.36358271,82.6472042 Z" id="path3715" fill="#010202"></path>
                <path d="M3.48247303,82.8077277 C3.34603432,82.7852984 3.32936335,82.7619895 3.35436981,82.6340105 C3.37060206,82.5526492 4.14667948,78.3157068 5.08025368,73.2189738 L6.77762142,63.9530262 L9.04487303,63.9530262 L11.3116859,63.9530262 L11.261673,64.2142618 C10.8738537,66.2456545 9.96879561,71.2786178 9.98853755,71.2988482 C10.0337246,71.3476649 14.0588859,71.3590995 15.4039698,71.313801 L16.6964085,71.2720209 L17.371144,67.6257173 C17.7418537,65.6202723 18.0467569,63.9732565 18.0476343,63.9649005 C18.0498279,63.9574241 19.0676343,63.9530262 20.3109375,63.9530262 L22.5716085,63.9530262 L22.542215,64.0761675 C22.5264214,64.1443351 21.7573634,68.3394974 20.8338795,73.3988482 C19.9103956,78.4568796 19.1413375,82.6520419 19.1251053,82.7202094 L19.095273,82.8446702 L16.8372343,82.8446702 C15.5948085,82.8446702 14.5787569,82.8385131 14.5787569,82.8301571 C14.5787569,82.8222408 14.9007698,81.0652775 15.2947311,78.9234974 C15.7856472,76.2482513 15.9918408,75.0146387 15.9527956,74.9746178 C15.8786537,74.8998534 9.28879561,74.860712 9.28879561,74.9337173 C9.28879561,74.9631832 9.06680852,76.1888796 8.79524723,77.6582199 C8.52412465,79.1284398 8.20255045,80.8739686 8.08190529,81.5384921 C7.96038271,82.2043351 7.84544077,82.7633089 7.82701497,82.7830995 C7.78533755,82.8226806 3.71630529,82.8468691 3.48247303,82.8077277 L3.48247303,82.8077277 Z" id="path3717" fill="#010202"></path>
                <path d="M26.6178279,83.1190995 C24.8489505,82.8873298 23.4481505,81.8300733 22.9954021,80.3862408 C22.8379053,79.881801 22.8282537,78.8601675 22.9769763,78.3157068 C23.3731311,76.868356 24.6010795,75.7147853 26.4362021,75.0660942 C27.8133117,74.5779267 30.168744,74.1948691 32.4750408,74.0818429 C32.983944,74.0576545 33.2796343,74.0211518 33.3160472,73.9771728 C33.3471956,73.9406702 33.4248472,73.7027435 33.4884601,73.4489843 C33.8582924,71.9827225 33.0980085,71.0771937 31.5006666,71.0793927 C30.2735956,71.0820314 29.4036343,71.5266597 28.8021634,72.4590157 C28.6810795,72.6454869 28.5547311,72.8834136 28.520073,72.9889634 C28.4836601,73.1011099 28.4213634,73.1785131 28.3687182,73.1785131 C28.1761246,73.1785131 24.470344,72.7813822 24.4470924,72.7571937 C24.4339311,72.7448796 24.5629117,72.4546178 24.7353246,72.1124607 C25.7465505,70.1061361 27.503144,68.9771937 30.171815,68.6165654 C30.9500859,68.5114555 32.6369246,68.4982618 33.3994021,68.5919372 C35.6627053,68.8672461 37.2315311,69.8932775 37.7307827,71.418911 C37.8470408,71.7747016 37.8623956,71.9246702 37.8588859,72.6252565 C37.8553763,73.5224293 37.7926408,73.9477068 37.1218537,77.5663037 C36.5664472,80.5625969 36.5414408,80.742911 36.5410021,81.8366702 L36.5405634,82.7905759 L34.4369505,82.7905759 L32.3333375,82.7914555 L32.293415,82.4176335 C32.266215,82.1682723 32.2833246,81.8045654 32.3451827,81.3265131 C32.4710924,80.3356649 32.4693375,80.3286283 32.2012859,80.7750157 C31.9152472,81.2486702 31.0347569,82.1427644 30.6056988,82.3947644 C29.5378795,83.0205864 28.0006408,83.3011728 26.6178279,83.1190995 L26.6178279,83.1190995 Z M30.1626021,80.4640838 C30.6157892,80.3083979 30.9294666,80.1052147 31.3501892,79.7006073 C31.8060085,79.2616963 32.1429375,78.7669319 32.4061634,78.149466 C32.5974408,77.7030785 32.8852343,76.7012356 32.9580601,76.2306597 L32.994473,75.9953717 L32.6724601,75.9971309 C31.8016214,75.9997696 30.4653117,76.2117487 29.6672988,76.475623 C28.3810021,76.9004607 27.7018795,77.5429948 27.5255182,78.5017382 C27.3877634,79.2502618 27.6860859,79.9957068 28.267815,80.3572147 C28.7346021,80.6452775 29.5098021,80.6888168 30.1626021,80.4640838 Z" id="path3719" fill="#010202"></path>
                <path d="M39.9721505,82.555288 C39.9975956,82.4259895 40.5657246,79.323267 41.2330021,75.6637696 C41.9007182,72.0020733 42.4591956,68.9499267 42.4749892,68.882199 L42.5030666,68.7577382 L44.6233505,68.7577382 C46.4426795,68.7577382 46.744073,68.7696126 46.744073,68.8382199 C46.744073,68.8826387 46.6199182,69.5955393 46.4685634,70.4201466 C46.3167698,71.2482723 46.1934924,71.9387435 46.1934924,71.9563351 C46.1934924,71.9756859 46.3549375,71.6959791 46.5519182,71.3362304 C46.9827311,70.5507644 47.328873,70.0542408 47.7359956,69.6395183 C48.4431956,68.9165026 49.062215,68.6728586 50.4520472,68.5699476 L50.8267053,68.5409215 L50.7973117,68.7185969 C50.7815182,68.8166702 50.6801763,69.6795393 50.5731311,70.635644 C50.4665246,71.5930681 50.3673763,72.4291099 50.3533375,72.4933194 C50.3300859,72.5997487 50.2796343,72.6125026 49.7619569,72.6419686 C48.4098537,72.7176126 47.4622408,73.248 46.7023956,74.3527539 C45.9715053,75.4157277 45.7508343,76.1506178 45.1186537,79.6135288 C44.9194795,80.7077277 44.7075827,81.8586597 44.6479182,82.170911 C44.5882537,82.4844817 44.5395569,82.7518743 44.5395569,82.7659476 C44.5395569,82.7791414 43.5006924,82.7918953 42.2315053,82.7918953 L39.9238924,82.7918953 L39.9721505,82.555288 Z" id="path3721" fill="#010202"></path>
                <path d="M55.1190408,83.0412565 C54.2126666,82.8921675 53.5151182,82.5513298 52.8781117,81.9439791 C51.7471182,80.8669319 51.2096988,79.3681257 51.2092601,77.2914346 C51.2088214,75.5261152 51.5676859,73.9771728 52.3428859,72.4106387 C53.7682537,69.5269319 55.7481505,68.2581361 58.4650795,68.4885864 C59.4126924,68.5686283 60.1308601,68.8720838 60.6849505,69.4266597 C60.9995053,69.7433089 61.3667053,70.3616545 61.5163053,70.8291518 C61.5759698,71.0169424 61.5926408,71.0327749 61.6294924,70.9404188 C61.6531827,70.8788482 61.9532601,69.2824084 62.2963311,67.3904293 L62.9192988,63.9530262 L65.1356601,63.9530262 L67.3524601,63.9530262 L67.3164859,64.1311414 C67.2971827,64.2314136 66.5211053,68.4626387 65.5914795,73.5373822 L63.9024472,82.7624293 L61.826473,82.7765026 C60.6849505,82.7857382 59.7500601,82.7844188 59.7500601,82.7738639 C59.7500601,82.7628691 59.8360472,82.2861361 59.9413375,81.7122094 C60.0461892,81.1387225 60.1242795,80.6606702 60.1150666,80.6518743 C60.105415,80.6417592 60.0339053,80.7279581 59.9571311,80.8423037 C59.2472988,81.8956021 58.1746537,82.710534 57.1327182,82.9858429 C56.6668085,83.1081047 55.6906795,83.1358115 55.1190408,83.0412565 L55.1190408,83.0412565 Z M58.2325634,80.1637068 C58.6611827,80.052 59.0441763,79.8400209 59.3999698,79.512377 C60.0834795,78.8887539 60.4519956,77.9168168 60.7915569,75.854199 C61.0477634,74.2925026 61.095144,73.7678325 61.0218795,73.2867016 C60.8977246,72.4788063 60.486215,71.8591414 59.8465763,71.5178639 C59.5579053,71.3630576 59.4293634,71.3300733 59.0560214,71.3102827 C58.2470408,71.267623 57.6201246,71.5767958 57.1318408,72.2641885 C56.3197892,73.4041257 55.7257763,75.9118115 55.7933375,77.9181361 C55.8148343,78.5628691 55.8389634,78.7242723 55.9569763,79.0140942 C56.117544,79.4085864 56.2667053,79.6064921 56.5992472,79.8637696 C57.0673505,80.2248377 57.6148601,80.3246702 58.2325634,80.1637068 L58.2325634,80.1637068 Z" id="path3723" fill="#010202"></path>
                <path d="M70.6217246,82.7430785 C70.6217246,82.6977801 68.4505505,69.2247958 68.3930795,68.9103455 L68.3654408,68.7577382 L70.6445375,68.7577382 C72.7687698,68.7577382 72.924073,68.7647749 72.9486408,68.8549319 C72.9604859,68.9085864 73.2311698,70.8722513 73.5452859,73.2189738 C73.8620343,75.5670157 74.1318408,77.4867016 74.1489505,77.4867016 C74.1660601,77.4867016 74.9991698,75.5287539 76.000744,73.1362932 L77.8196343,68.785445 L79.8675311,68.7718115 L81.9154279,68.7577382 L81.9426279,68.882199 C81.9571053,68.9499267 82.1571569,70.8590576 82.3861634,73.1226597 C82.6160472,75.385822 82.8169763,77.2975916 82.8336472,77.3705969 C82.8490021,77.4427225 82.8805892,77.4805445 82.9051569,77.4532775 C82.9270924,77.4255707 83.8742666,75.459267 85.0096472,73.082199 L87.0720214,68.760377 L88.7636859,68.760377 L90.454473,68.7577382 L89.7749117,70.1527539 C89.4006924,70.9201885 87.8397634,74.0770052 86.3055956,77.1682932 L83.5162795,82.7910157 L81.5333117,82.7910157 L79.5512214,82.7910157 L79.5235827,82.6661152 C79.4933117,82.5271414 78.4461117,73.8870157 78.4461117,73.7770681 C78.4461117,73.7344084 78.4281246,73.7282513 78.3978537,73.7594764 C78.3706537,73.7889424 77.4879698,75.833089 76.4355053,78.3007539 L74.5240472,82.7910157 L72.5731053,82.7910157 C71.5000214,82.7910157 70.6217246,82.7690262 70.6217246,82.7430785 L70.6217246,82.7430785 Z" id="path3725" fill="#010202"></path>
                <path d="M93.7399698,83.1428482 C92.4321763,82.9423037 91.5920472,82.5495707 90.8348343,81.7825759 C90.1482537,81.0863874 89.8170279,80.1685445 89.872744,79.1161257 C89.9850537,76.9967749 91.5780085,75.4904921 94.4835827,74.7525236 C95.7944472,74.4191623 98.6065763,74.0616126 99.9191956,74.0616126 C100.243402,74.0616126 100.272796,74.050178 100.342989,73.9081257 C100.584718,73.4239162 100.646138,72.565445 100.472409,72.1164188 C100.324125,71.7307225 99.865673,71.3331518 99.4080988,71.1902199 C98.9650021,71.0525654 98.1494408,71.0398115 97.6300085,71.1625131 C96.7398666,71.3740524 96.0664472,71.9044398 95.6667827,72.7074974 C95.5461375,72.9515812 95.4430408,73.1591623 95.438215,73.1688377 L91.4599956,72.7611518 C91.412615,72.7123351 91.7850795,71.9475393 92.075944,71.5011518 C92.9270408,70.1932147 94.2326408,69.2850471 95.8716601,68.8663665 C97.7660085,68.3795183 100.27455,68.3962304 101.877157,68.9015497 C103.481957,69.4086283 104.519505,70.4271832 104.823092,71.7900942 C104.995944,72.5707225 104.903376,73.313089 104.053157,77.9563979 C103.566189,80.6180105 103.506525,81.0885864 103.531092,82.0605236 L103.548202,82.7910157 L101.446344,82.7910157 C99.5809505,82.7910157 99.3418537,82.7795812 99.3115827,82.7026178 C99.2510408,82.5442932 99.2760472,81.7531099 99.3642279,81.1294869 C99.4098537,80.791288 99.4405634,80.488712 99.4295956,80.4574869 C99.419944,80.4253822 99.3124601,80.5722723 99.1935698,80.780733 C98.9040214,81.284733 98.0985505,82.0970262 97.5935956,82.3952042 C97.1263698,82.6709529 96.4779569,82.9154764 95.8861375,83.0377382 C95.4610279,83.1252565 94.0738279,83.1934241 93.7399698,83.1428482 L93.7399698,83.1428482 Z M97.0890795,80.488712 C97.9186795,80.2441885 98.7500343,79.4727958 99.2492859,78.4828272 C99.5388343,77.9080209 99.8336472,76.9686283 99.9643827,76.2011937 L99.9999182,75.9949319 L99.6998408,75.9949319 C98.8373375,75.9949319 97.3641505,76.2302199 96.6021117,76.4896963 C95.6176472,76.8265759 95.003015,77.3015497 94.6875827,77.9700314 C94.5296472,78.3033927 94.5125375,78.3935497 94.5125375,78.8408168 C94.5147311,79.3993508 94.6134408,79.6922513 94.9205375,80.0410052 C95.4009246,80.5911832 96.1879698,80.753466 97.0890795,80.488712 L97.0890795,80.488712 Z" id="path3727" fill="#010202"></path>
                <path d="M106.962679,82.5838743 C106.984176,82.4686492 107.562396,79.3175497 108.248538,75.5815288 L109.493157,68.7858848 L111.626163,68.7722513 C112.800589,68.7638953 113.761802,68.7722513 113.761802,68.7894031 C113.761802,68.8087539 113.638525,69.5018639 113.485415,70.3326283 C113.333183,71.1625131 113.210783,71.8754136 113.21166,71.9176335 C113.21166,71.9567749 113.344589,71.7395183 113.506473,71.4316649 C113.942112,70.6013403 114.288254,70.1083351 114.781363,69.6148901 C115.267015,69.1289215 115.686421,68.8738429 116.226473,68.7335497 C116.557699,68.6486702 117.731686,68.5268482 117.782138,68.5743455 C117.805389,68.5945759 117.432486,72.0394555 117.364047,72.4370262 L117.335092,72.6098639 L116.745467,72.6437277 C116.080821,72.6819895 115.647376,72.7840209 115.167428,73.014911 C114.26895,73.445466 113.380563,74.5713298 112.955892,75.8220942 C112.673363,76.6489005 112.482525,77.5821361 111.626163,82.3081257 L111.538421,82.7923351 L109.230809,82.7923351 L106.923634,82.7923351 L106.962679,82.5838743 L106.962679,82.5838743 Z" id="path3729" fill="#010202"></path>
                <path d="M124.092976,83.1428482 C123.050602,83.027623 122.237673,82.7923351 121.421234,82.368377 C119.300073,81.265822 118.113802,79.2273927 118.113802,76.6845236 C118.113802,74.3628691 119.054396,72.2026178 120.795196,70.5217382 C122.237234,69.129801 123.963996,68.478911 126.215454,68.4736335 C128.384873,68.4692356 129.891402,69.0356859 131.089518,70.310199 C131.995454,71.2720209 132.539015,72.4431832 132.72415,73.8316021 C132.785131,74.2947016 132.762757,75.6263874 132.682034,76.2302199 L132.648692,76.4918953 L127.646086,76.4918953 L122.643918,76.4918953 L122.602241,76.973466 C122.550034,77.6102827 122.602241,78.2708482 122.737802,78.6605026 C123.113776,79.7489843 124.209234,80.3915183 125.501234,80.2837696 C126.655041,80.1852565 127.509647,79.5897801 128.087428,78.4775497 L128.30415,78.0597487 L130.151557,78.3429738 C131.166731,78.4969005 132.008176,78.6358743 132.023092,78.6499476 C132.074421,78.7018429 131.658086,79.5145759 131.317209,80.024733 C131.095221,80.358534 130.764434,80.7499476 130.41566,81.0890262 C129.322396,82.1515602 128.108047,82.7659476 126.547118,83.0438953 C126.083402,83.1252565 124.521596,83.1885864 124.092976,83.1428482 L124.092976,83.1428482 Z M128.605983,74.0479791 C128.671789,73.8016963 128.640202,72.8126073 128.559918,72.5368586 C128.287479,71.6194555 127.388563,71.0230995 126.276434,71.0230995 C125.434989,71.0230995 124.787892,71.2627853 124.230292,71.7804188 C123.696821,72.2760628 123.341028,72.9128796 123.055428,73.882178 L122.971196,74.1728796 L125.771918,74.1728796 L128.572641,74.1728796 L128.605983,74.0479791 L128.605983,74.0479791 Z" id="path3731" fill="#010202"></path>
                <path d="M47.6894924,33.5010471 C47.6706279,34.7320209 47.2047182,36.8856754 48.0461634,40.8363141 C48.0461634,40.8363141 50.6117375,59.8664921 69.9417246,60.2420733 C75.5010537,59.8607749 77.847273,58.8004398 80.7085375,57.3966283 C91.4477117,52.1279372 93.2336988,40.3226387 93.2336988,40.3226387 L83.1315311,40.3226387 C77.2870408,53.5471414 65.9323569,49.1092147 65.9323569,49.1092147 L72.3212859,19.0200628 C84.5950666,19.3569424 85.0526408,30.9485026 85.0526408,30.9485026 L95.3228343,30.9485026 C95.3228343,30.9485026 96.0449505,18.7711414 84.2059311,11.5471414 C81.7798666,10.0681257 77.7805892,9.02714136 73.8659827,8.93522513 C73.8659827,8.93478534 52.0033246,7.56 47.6894924,33.5010471" id="path3733" fill="#E73137"></path>
                <polyline id="polyline3735" fill="#E73137" points="135.174344 12.2011099 133.17295 21.5761257 115.971583 21.5761257 113.967557 30.9507016 131.208847 30.9507016 129.247815 40.3252775 112.006086 40.3252775 110.043738 49.6989738 127.286344 49.6989738 125.282318 59.0313298 90.5479182 59.0313298 100.44126 12.2011099 135.174344 12.2011099"></polyline>
                <polyline id="polyline3737" fill="#E73137" points="25.9036085 59.1135707 20.3100601 29.232 0.43870529 59.1135707 25.9036085 59.1135707"></polyline>
                <polyline id="polyline3739" fill="#E73137" points="50.2436601 59.1135707 31.2484085 59.1135707 24.5694924 22.7864293 39.4312214 0.439790576 50.2436601 59.1135707"></polyline>
                <path d="M127.069621,56.6841675 C127.069621,55.2983874 128.190525,54.2749948 129.517621,54.2749948 C130.827609,54.2749948 131.948512,55.2979476 131.948512,56.6841675 C131.948512,58.0827016 130.827609,59.1038953 129.517621,59.1038953 C128.190086,59.1038953 127.069621,58.0827016 127.069621,56.6841675 L127.069621,56.6841675 Z M129.517621,58.7010471 C130.605183,58.7010471 131.465054,57.8460942 131.465054,56.6841675 C131.465054,55.5389529 130.605183,54.6778429 129.517621,54.6778429 C128.413389,54.6778429 127.553518,55.5389529 127.553518,56.6841675 C127.553518,57.8460942 128.413389,58.7010471 129.517621,58.7010471 Z M129.006086,58.0827016 L128.585363,58.0827016 L128.585363,55.2983874 L129.641776,55.2983874 C130.300718,55.2983874 130.624486,55.5393927 130.624486,56.0908901 C130.624486,56.588733 130.311247,56.8037906 129.905002,56.8548063 L130.694241,58.0827016 L130.222628,58.0827016 L129.490421,56.8772356 L129.006086,56.8772356 L129.006086,58.0827016 L129.006086,58.0827016 Z M129.509725,56.5170471 C129.866396,56.5170471 130.184899,56.4928586 130.184899,56.0623037 C130.184899,55.719267 129.872099,55.6554974 129.579041,55.6554974 L129.005647,55.6554974 L129.005647,56.5170471 L129.509725,56.5170471 Z" id="path3741" fill="#E73137"></path>
            </g>
        </g>
    </g>
</svg>
