<svg viewBox="0 0 200 200" version="1.1" xmlns="http://www.w3.org/2000/svg" xmlns:xlink="http://www.w3.org/1999/xlink">
    <g id="Images" stroke="none" stroke-width="1" fill="none" fill-rule="evenodd">
        <g id="Complete-Genomics" fill-rule="nonzero">
            <g transform="translate(3.000000, 71.000000)" id="Shape">
                <path d="M20.8975921,32.8500952 C18.5167139,33.4742857 17.3014164,34.0984762 13.6334278,34.0984762 C5.46883853,34.0984762 0.00552407932,28.1217143 0.00552407932,20.2337143 C0.00552407932,12.3457143 5.15949008,6.13695238 13.1307365,6.13695238 C17.3456091,6.13695238 18.8315864,7.076 20.0800283,7.076 C20.4223278,7.0309543 20.746461,6.89558761 21.0191218,6.68380952 L21.2953258,6.68380952 L21.2953258,11.5668571 L21.0191218,11.5668571 C19.3011331,10.5118095 17.7378187,9.26342857 13.7936261,9.26342857 C8.05410765,9.26342857 4.10991501,13.7929524 4.10991501,20.2392381 C4.10991501,26.3706667 7.89943343,30.9775238 13.6776204,30.9775238 C17.5444759,30.9775238 19.6160057,29.4584762 21.1351275,28.3647619 L21.45,28.3647619 L20.8975921,32.8500952 Z" fill="#008BB0"></path>
                <path d="M22.494051,23.868381 C22.494051,18.4771429 25.8084986,13.8702857 32.6473088,13.8702857 C39.486119,13.8702857 42.8005666,18.4771429 42.8005666,23.868381 C42.8005666,30.276 38.8563739,34.0653333 32.6473088,34.104 C26.4382436,34.1426667 22.494051,30.303619 22.494051,23.868381 Z M32.6473088,31.0935238 C36.7075071,31.0935238 39.209915,28.4365714 39.209915,23.868381 C39.209915,19.5321905 36.8677054,16.8752381 32.6473088,16.8752381 C28.5871105,16.8752381 26.0847025,19.5321905 26.0847025,23.868381 C26.0847025,28.4420952 28.5871105,31.0935238 32.6473088,31.0935238 Z" fill="#008BB0"></path>
                <path d="M43.6567989,33.0655238 C45.4521246,32.7948571 45.6896601,31.579619 45.6896601,27.635619 L45.6896601,20.5651429 C45.6896601,15.7207619 45.1814448,15.4114286 43.6567989,14.8645714 L43.6567989,14.5497143 L48.6284703,14.5497143 L49.0206799,17.1293333 C49.9984419,15.803619 51.2303116,13.8481905 55.0971671,13.8481905 C58.4116147,13.8481905 59.3175637,15.6820952 60.173796,17.0906667 C61.2288952,15.6489524 62.2453258,13.8481905 65.9906516,13.8481905 C72.1997167,13.8481905 72.1997167,18.4937143 72.1997167,21.9295238 L72.1997167,27.6300952 C72.1997167,31.1045714 72.3930595,32.5518095 74.2325779,33.06 L74.2325779,33.3748571 L66.6259207,33.3748571 L66.6259207,33.0655238 C68.4212465,32.7948571 68.6587819,31.579619 68.6587819,27.635619 L68.6587819,22.4045714 C68.6587819,19.2780952 68.2279037,16.8807619 65.1454674,16.8807619 C60.6930595,16.8807619 60.6930595,20.9794286 60.6930595,22.5426667 L60.6930595,27.6577143 C60.6930595,31.1321905 60.8864023,32.5794286 62.7259207,33.087619 L62.7259207,33.4024762 L55.1413598,33.4024762 L55.1413598,33.0655238 C56.9366856,32.7948571 57.174221,31.579619 57.174221,27.635619 L57.174221,21.4655238 C57.174221,17.9910476 55.7655807,16.8973333 53.7769122,16.8973333 C51.7882436,16.8973333 49.2084986,17.5988571 49.2084986,23.0287619 L49.2084986,27.6742857 C49.2084986,31.1487619 49.4018414,32.596 51.2358357,33.1041905 L51.2358357,33.4190476 L43.6567989,33.4190476 L43.6567989,33.0655238 Z" fill="#008BB0"></path>
                <path d="M74.5419263,40.975619 C76.259915,40.4232381 76.5747875,39.3184762 76.5747875,34.452 L76.5747875,23.0508571 C76.5747875,16.212381 76.5747875,15.6710476 74.5419263,14.8866667 L74.5032578,14.5718095 L79.4749292,14.5718095 L79.8671388,17.0354286 C81.0382436,15.7870476 82.5628895,13.8702857 86.9379603,13.8702857 C92.0145892,13.8702857 95.9974504,17.2674286 95.9974504,24.5699048 C95.9974504,30.7013333 92.1692635,34.0984762 87.0926346,34.0984762 C85.9878187,34.0984762 83.85,33.9051429 82.5628895,33.1207619 L81.3531161,28.9779048 L81.7066572,28.9779048 C83.153966,30.6958095 84.2035411,31.088 86.6783286,31.088 C89.7607649,31.088 92.3791785,28.8784762 92.3791785,24.216381 C92.3791785,19.372 89.6171388,16.8752381 86.3634561,16.8752381 C80.7399433,16.8752381 80.0383853,21.8466667 80.0383853,25.4702857 L80.0383853,38.1253333 C79.9503838,39.4383808 80.8010769,40.6311423 82.0712465,40.975619 L82.0712465,41.2904762 L74.5419263,41.2904762 L74.5419263,40.975619 Z" fill="#008BB0"></path>
                <path d="M96.7211048,33.0655238 C98.5164306,32.7948571 98.753966,31.579619 98.753966,27.635619 L98.753966,13.5222857 C98.753966,8.79390476 98.4446176,7.70571429 96.7211048,7.15885714 L96.7211048,6.844 L102.245184,6.844 L102.245184,27.6577143 C102.245184,31.1321905 102.438527,32.5794286 104.278045,33.087619 L104.278045,33.4024762 L96.7211048,33.4024762 L96.7211048,33.0655238 Z" fill="#008BB0"></path>
                <path d="M121.56289,32.8169524 C119.509776,33.6330637 117.325399,34.0691691 115.116289,34.104 C107.029037,34.104 105.0017,28.2432381 105.0017,24.2219048 C105.0017,17.5933333 109.139235,13.8702857 114.392635,13.8702857 C124.275212,13.8702857 123.104108,23.8131429 123.258782,24.6859048 L108.592351,24.6859048 C108.75255,26.6413333 109.177904,31.088 115.038952,31.088 C118.474929,31.088 120.739802,29.6849524 121.717564,28.7072381 L122.032436,28.8619048 L121.56289,32.8169524 Z M119.690227,21.8411429 C119.530028,20.1232381 118.585411,16.8697143 114.337394,16.8697143 C110.089377,16.8697143 108.868555,20.1121905 108.636544,21.8411429 L119.690227,21.8411429 Z" fill="#008BB0"></path>
                <path d="M134.097025,33.4024762 C132.936547,33.8498204 131.705793,34.0873556 130.462181,34.104 C126.401983,34.104 126.401983,31.0548571 126.401983,28.4420952 L126.401983,17.427619 L123.783569,17.427619 L123.783569,16.8752381 L129.053541,11.0973333 L129.909773,11.0973333 L129.909773,14.5718095 L134.091501,14.5718095 L134.091501,17.4220952 L129.909773,17.4220952 L129.909773,26.9506667 C129.909773,29.7125714 129.909773,31.0935238 131.903966,31.0935238 C132.727054,31.0935238 133.46728,30.5853333 134.207507,30.1986667 L134.478187,30.1986667 L134.097025,33.4024762 Z" fill="#008BB0"></path>
                <path d="M151.630453,32.8169524 C149.579071,33.6324079 147.396625,34.0685015 145.189377,34.104 C137.102125,34.104 135.074788,28.2432381 135.074788,24.2219048 C135.074788,17.5933333 139.212323,13.8702857 144.465722,13.8702857 C154.3483,13.8702857 153.177195,23.8131429 153.33187,24.6859048 L138.659915,24.6859048 C138.814589,26.6413333 139.245467,31.088 145.106516,31.088 C148.542493,31.088 150.807365,29.6849524 151.785127,28.7072381 L152.1,28.8619048 L151.630453,32.8169524 Z M149.75779,21.8411429 C149.597592,20.1232381 148.652975,16.8697143 144.404958,16.8697143 C140.156941,16.8697143 138.936119,20.1121905 138.704108,21.8411429 L149.75779,21.8411429 Z" fill="#008BB0"></path>
                <path d="M94.6495751,41.2131429 L94.6495751,53.592 C94.6495751,56.144 93.2464589,57.4586667 90.4402266,57.4586667 C87.9654391,57.4586667 86.496034,56.1384762 86.496034,53.6306667 L88.026204,53.6306667 C88.026204,55.3761905 89.0371105,56.055619 90.5009915,56.055619 C92.274221,56.055619 93.2077904,55.332 93.2077904,53.3765714 L93.2077904,51.2940952 L93.1691218,51.2940952 C92.7566008,52.4492297 91.6316372,53.1939193 90.4070822,53.1224762 C87.5787535,53.1224762 86.3800283,50.3605714 86.3800283,47.0462857 C86.3800283,43.732 87.5787535,40.9700952 90.3021246,40.9700952 C91.6831445,40.9700952 92.7382436,41.3954286 93.2133144,42.8205714 L93.251983,42.8205714 L93.251983,41.1634286 L94.6495751,41.2131429 Z M90.5838527,51.708381 C92.1526912,51.708381 93.1249292,50.4931429 93.1249292,47.0518095 C93.1249292,43.6104762 92.1526912,42.3952381 90.5838527,42.3952381 C88.727762,42.3952381 87.8825779,43.8811429 87.8825779,47.0518095 C87.8825779,49.9739048 88.7664306,51.7194286 90.5838527,51.7194286 L90.5838527,51.708381 Z" fill="#008AB0"></path>
                <path d="M97.9143059,47.6373333 C97.9143059,49.8081905 98.8865439,51.7194286 100.637677,51.7194286 C102.123654,51.7194286 102.764448,50.2500952 102.93017,48.8912381 L104.394051,48.8912381 C104.394051,50.9129524 102.803116,53.1224762 100.615581,53.1224762 C98.057932,53.1224762 96.384136,50.951619 96.384136,47.0462857 C96.384136,43.5607619 97.9143059,41.0032381 100.510623,41.0032381 C102.946742,41.0032381 104.377479,43.0857143 104.377479,46.6375238 L104.377479,47.6373333 L97.9143059,47.6373333 Z M102.885977,46.2342857 C102.885977,43.936381 102.123654,42.4062857 100.471955,42.4062857 C99.1075071,42.4062857 97.9529745,43.936381 97.9308782,46.2342857 L102.885977,46.2342857 Z" fill="#008AB0"></path>
                <path d="M106.045751,52.9125714 L106.045751,41.2131429 L107.575921,41.2131429 L107.575921,42.831619 L107.620113,42.831619 C107.929462,41.6826667 108.857507,41.0032381 110.448442,41.0032381 C112.906657,41.0032381 113.895467,42.6217143 113.895467,44.5329524 L113.895467,52.9125714 L112.365297,52.9125714 L112.365297,44.9969524 C112.365297,43.295619 111.625071,42.4007619 110.260623,42.4007619 C109.528625,42.3794241 108.821267,42.6662335 108.31085,43.1913285 C107.800432,43.7164235 107.533808,44.4316046 107.575921,45.1626667 L107.575921,52.896 L106.045751,52.9125714 Z" fill="#008AB0"></path>
                <path d="M124.579037,47.0628571 C124.579037,50.3771429 123.341643,53.1390476 120.121105,53.1390476 C116.900567,53.1390476 115.663173,50.3771429 115.663173,47.0628571 C115.663173,43.7485714 116.900567,40.9866667 120.121105,40.9866667 C123.341643,40.9866667 124.579037,43.7651429 124.579037,47.0628571 Z M117.187819,47.0628571 C117.187819,49.8247619 118.220822,51.7194286 120.121105,51.7194286 C122.021388,51.7194286 123.054391,49.8468571 123.054391,47.0628571 C123.054391,44.2788571 122.021388,42.4062857 120.121105,42.4062857 C118.220822,42.4062857 117.204391,44.2733333 117.204391,47.0628571 L117.187819,47.0628571 Z" fill="#008AB0"></path>
                <path d="M132.379037,52.9125714 L132.379037,44.9582857 C132.379037,43.2348571 131.76034,42.3841905 130.417989,42.4062857 C128.683428,42.4062857 127.882436,43.6380952 127.882436,45.1681905 L127.882436,52.9015238 L126.352266,52.9015238 L126.352266,41.2131429 L127.882436,41.2131429 L127.882436,42.831619 L127.921105,42.831619 C128.230453,41.6826667 129.158499,41.0032381 130.749433,41.0032381 C131.927516,40.9302109 133.021814,41.613836 133.472805,42.7045714 L133.511473,42.7045714 C134.088037,41.5790183 135.283056,40.9086219 136.544193,41.0032381 C138.461048,41.0032381 139.930453,41.9367619 139.930453,44.5771429 L139.930453,52.9125714 L138.400283,52.9125714 L138.400283,44.9582857 C138.400283,43.2348571 137.781586,42.3841905 136.439235,42.4062857 C134.704674,42.4062857 133.898159,43.6380952 133.898159,45.1681905 L133.898159,52.9015238 L132.379037,52.9125714 Z" fill="#008AB0"></path>
                <path d="M142.537819,39.5118095 L142.537819,37.5950476 L144.067989,37.5950476 L144.067989,39.5118095 L142.537819,39.5118095 Z M142.537819,52.9125714 L142.537819,41.2131429 L144.067989,41.2131429 L144.067989,52.9125714 L142.537819,52.9125714 Z" fill="#008AB0"></path>
                <path d="M152.381728,45.3780952 C152.298867,43.9308571 151.68017,42.4007619 150.172096,42.4007619 C148.481728,42.4007619 147.653116,44.0579048 147.653116,47.0573333 C147.653116,50.1838095 148.686119,51.7139048 150.172096,51.7139048 C151.740935,51.7139048 152.276771,50.4379048 152.503258,48.8415238 L154.011331,48.8415238 C153.806941,51.3714286 152.751841,53.1169524 150.089235,53.1169524 C147.426629,53.1169524 146.12847,50.9074286 146.12847,47.0407619 C146.12847,43.3619048 147.365864,40.9645714 150.172096,40.9645714 C152.729745,40.9645714 153.867705,42.92 153.906374,45.3449524 L152.381728,45.3780952 Z" fill="#008AB0"></path>
                <path d="M161.198159,44.6158095 C161.093201,43.2127619 160.330878,42.4062857 158.927762,42.4062857 C157.773229,42.4062857 156.905949,43.0028571 156.905949,44.2346667 C156.905949,46.9579048 162.894051,45.2565714 162.894051,49.5927619 C162.894051,51.7194286 161.363881,53.1224762 158.91119,53.1224762 C156.618697,53.1224762 155.01119,51.824381 155.01119,49.4878095 L156.54136,49.4878095 C156.521116,50.0797856 156.747408,50.6536252 157.166264,51.0724601 C157.585119,51.491295 158.158987,51.7175765 158.750992,51.6973333 C160.275637,51.6973333 161.269972,51.1007619 161.269972,49.7860952 C161.269972,46.5933333 155.28187,48.808381 155.28187,44.2125714 C155.28187,42.2958095 156.729178,40.9811429 158.78966,40.9811429 C161.264448,40.9811429 162.656516,42.2571429 162.711756,44.5992381 L161.198159,44.6158095 Z" fill="#008AB0"></path>
                <path d="M164.600992,28.0940952 C164.561411,27.3562798 164.592859,26.6163682 164.694901,25.8845714 C164.76119,25.288 164.860623,25.1167619 164.943484,24.5201905 C165.081586,23.4706667 164.76119,21.1561905 164.998725,19.0571429 C165.175496,17.4939048 165.379887,16.0798095 165.379887,16.0798095 C165.716856,15.0413333 165.766572,13.7819048 168.252408,13.2571429 L168.379462,13.224 C168.235479,13.1175346 168.100596,12.9992863 167.976204,12.8704762 C167.787594,12.5797853 167.714676,12.2290087 167.771813,11.8872381 C167.778304,11.7262607 167.817789,11.5683316 167.887819,11.4232381 C168.032,11.2994125 168.158405,11.1562849 168.263456,10.9979048 C168.454723,10.5666829 168.600966,10.1168706 168.699858,9.65561905 C168.785349,9.10762721 168.809436,8.55180881 168.771671,7.99847619 C168.813104,6.80660193 167.901171,5.79692309 166.71119,5.71714286 L166.473654,5.71714286 L166.296884,5.71714286 L165.970963,5.71714286 C164.787569,5.80540134 163.8852,6.81259091 163.927054,7.99847619 C163.889519,8.55181163 163.913605,9.10760456 163.998867,9.65561905 C164.101813,10.1185625 164.255578,10.5687201 164.457365,10.9979048 C164.547435,11.1544683 164.659002,11.2976382 164.78881,11.4232381 C164.85884,11.5683316 164.898325,11.7262607 164.904816,11.8872381 C164.962501,12.2290192 164.889542,12.579994 164.700425,12.8704762 C164.030915,13.5190316 163.178822,13.9469853 162.258782,14.0967619 C160.143059,14.5441905 160.104391,15.6158095 159.817139,16.499619 C159.817139,16.499619 159.640368,17.7038095 159.491218,19.0295238 C159.292351,20.8137143 159.563031,22.7857143 159.447025,23.6750476 C159.380737,24.1832381 159.292351,24.3268571 159.23711,24.8405714 C159.149135,25.4606267 159.121386,26.087741 159.154249,26.7131429 C159.253683,28.7900952 159.192918,29.4142857 159.220538,31.2979048 L158.955382,32.7893333 C159.375212,32.8224762 159.795042,32.8445714 160.220397,32.8445714 L160.29221,32.8445714 C160.254053,32.5867885 160.244789,32.3255523 160.264589,32.0657143 C160.310981,31.6375471 160.386654,31.2130611 160.491076,30.7952381 C160.811473,29.3093333 160.98272,28.4310476 161.314164,27.000381 C161.562748,25.9342857 161.341785,25.6470476 161.540652,24.5754286 C161.8401,23.1377546 162.024817,21.6785582 162.093059,20.211619 C162.093059,20.211619 162.010198,19.9133333 162.170397,19.8912381 C162.330595,19.8691429 162.291926,20.184 162.314023,20.3110476 C162.414454,20.8732048 162.475368,21.4417082 162.496317,22.012381 C162.636383,23.1704802 162.675199,24.3385863 162.612323,25.5034286 C162.474221,26.823619 162.059915,27.26 161.949433,28.6299048 C161.794759,30.3201905 161.573796,30.9885714 161.684278,32.712 L161.684278,32.7727619 C162.70497,32.6762947 163.7135,32.4782994 164.694901,32.1817143 C164.672805,30.856 164.711473,29.9887619 164.600992,28.0940952 Z" fill="#88CBDF"></path>
                <path d="M172.815297,30.4969524 C172.766653,29.5745527 172.807352,28.6496105 172.936827,27.7350476 C173.019688,26.9838095 173.146742,26.768381 173.246176,26.0171429 C173.422946,24.7024762 173.019688,21.7914286 173.312465,19.1565714 C173.533428,17.195619 173.793059,15.4169524 173.793059,15.4169524 C174.174221,14.2569524 174.26813,12.876 176.494334,12.1026667 C176.336005,11.7573489 176.274887,11.3753818 176.317564,10.9979048 C176.325823,10.7968629 176.374678,10.5995708 176.46119,10.4179048 C176.642981,10.2568495 176.801065,10.0708786 176.930737,9.86552381 C177.17224,9.32439479 177.357353,8.75982753 177.483144,8.1807619 C177.589199,7.5031301 177.62069,6.81591917 177.577054,6.13142857 C177.616592,4.64075298 176.478886,3.38155837 174.991785,3.27009524 L174.693484,3.27009524 L174.472521,3.27009524 L174.063739,3.27009524 C172.575122,3.37344356 171.43774,4.64040153 171.495042,6.13142857 C171.449845,6.81572061 171.479482,7.5029016 171.583428,8.1807619 C171.70723,8.75145542 171.892444,9.30707242 172.135836,9.83790476 C172.246558,10.0410583 172.386107,10.2271146 172.550142,10.3902857 C172.636653,10.5719517 172.685509,10.7692438 172.693768,10.9702857 C172.766172,11.3982181 172.675503,11.8377445 172.43966,12.2020952 C171.597294,13.0174168 170.525445,13.5552431 169.368272,13.7432381 C166.716714,14.295619 166.661473,15.6544762 166.302408,16.7592381 C166.302408,16.7592381 166.081445,18.2672381 165.893626,19.9409524 C165.645042,22.183619 165.987535,24.6582857 165.838385,25.7740952 C165.75,26.4148571 165.645042,26.5971429 165.573229,27.232381 C165.462483,28.0096927 165.427333,28.7959073 165.468272,29.58 C165.595326,32.1872381 165.512465,32.971619 165.551133,35.3358095 L165.219688,37.208381 C165.744476,37.2525714 166.269263,37.2801905 166.805099,37.2801905 L166.921105,37.2801905 C166.873583,36.9565456 166.862466,36.6285961 166.88796,36.3024762 C166.946314,35.7646837 167.040432,35.2313759 167.169688,34.7060952 C167.572946,32.8445714 167.782861,31.7398095 168.202691,29.9445714 C168.517564,28.6078095 168.235836,28.2487619 168.489943,26.8954286 C168.845986,25.1051234 169.060248,23.2895244 169.130737,21.4655238 C169.130737,21.4655238 169.025779,21.0954286 169.224646,21.0678095 C169.423513,21.0401905 169.37932,21.432381 169.406941,21.6201905 C169.532104,22.3266218 169.607784,23.0409305 169.633428,23.7579048 C169.809063,25.2128917 169.857121,26.6804498 169.777054,28.1438095 C169.605807,29.8009524 169.10864,30.3533333 168.948442,32.0712381 C168.755099,34.192381 168.478895,35.032 168.616997,37.1973333 L168.616997,37.2691429 C170.069033,37.1357546 171.501429,36.8392834 172.88711,36.3853333 C172.892635,34.2365714 172.947875,33.1980952 172.815297,30.4969524 Z" fill="#00A8CB"></path>
                <path d="M194.585694,26.5032381 C194.408924,25.1885714 194.812181,22.2775238 194.519405,19.6426667 C194.298442,17.6817143 194.03881,15.9030476 194.03881,15.9030476 C193.613456,14.6049524 193.552691,13.019619 190.431586,12.3567619 C189.070551,12.1359484 187.809778,11.5036651 186.818839,10.5449524 C186.542383,10.1166233 186.43599,9.60044513 186.520538,9.09771429 C186.530824,8.86018258 186.589076,8.62718896 186.691785,8.4127619 C186.904165,8.22941988 187.090074,8.01749391 187.244193,7.78304762 C187.527695,7.14618385 187.744295,6.48160417 187.89051,5.8 C188.013245,5.00343802 188.04844,4.19583766 187.995467,3.39161905 C187.912606,1.18209524 186.548159,0.276190476 184.9517,0.0220952381 L184.598159,0.0220952381 L184.338527,0.0220952381 L183.857932,0.0220952381 C182.261473,0.270666667 180.924646,1.20971429 180.841785,3.39161905 C180.788812,4.19583766 180.824007,5.00343802 180.946742,5.8 C181.098994,6.48416402 181.326883,7.14926965 181.626204,7.78304762 C181.759338,8.01524036 181.924883,8.22727665 182.117847,8.4127619 C182.220846,8.62708433 182.279113,8.86013839 182.289093,9.09771429 C182.37507,9.60223469 182.268622,10.1206499 181.990793,10.5504762 C180.999854,11.5091889 179.739081,12.1414722 178.378045,12.3622857 C175.256941,13.0251429 175.196176,14.6104762 174.770822,15.9085714 C174.770822,15.9085714 174.51119,17.6817143 174.290227,19.6481905 C173.99745,22.2830476 174.400708,25.172 174.223938,26.5087619 C174.124504,27.26 173.99745,27.4754286 173.914589,28.2266667 C173.785355,29.1412518 173.744656,30.0661707 173.793059,30.9885714 C173.94221,34.0542857 173.8483,34.9767619 173.892493,37.7552381 L173.500283,39.9647619 C174.11898,40.0144762 174.737677,40.047619 175.367422,40.047619 L175.461331,40.047619 C175.406579,39.667191 175.393612,39.2819149 175.422663,38.8986667 C175.491409,38.2659832 175.602135,37.6385686 175.754108,37.0205714 C176.229178,34.8110476 176.477762,33.5295238 176.969405,31.4194286 C177.333994,29.8451429 177.008074,29.4198095 177.306374,27.8344762 C177.742533,25.7121471 178.008534,23.5583832 178.101841,21.3937143 C178.101841,21.3937143 177.980312,20.9573333 178.212323,20.9241905 C178.444334,20.8910476 178.394618,21.3550476 178.422238,21.5428571 C178.569145,22.3734244 178.657747,23.2132535 178.687394,24.0561905 C178.894623,25.7658179 178.951923,27.490293 178.85864,29.2099048 C178.654249,31.1598095 178.068697,31.8060952 177.880878,33.8278095 C177.648867,36.3245714 177.32847,37.3078095 177.488669,39.8542857 L177.488669,39.9426667 C182.518528,39.4818607 187.254228,37.368575 190.956374,33.9327619 L190.956374,33.8278095 C190.768555,31.8060952 190.183003,31.1598095 189.978612,29.2099048 C189.88479,27.4902987 189.942093,25.7657764 190.149858,24.0561905 C190.179216,23.2132332 190.267819,22.3733838 190.415014,21.5428571 C190.442635,21.3495238 190.415014,20.8965714 190.624929,20.9241905 C190.834844,20.9518095 190.735411,21.3937143 190.735411,21.3937143 C190.828718,23.5583832 191.094719,25.7121471 191.530878,27.8344762 C191.823654,29.4253333 191.497734,29.8451429 191.867847,31.4194286 C191.978329,31.8944762 192.077762,32.3253333 192.166147,32.739619 C193.232765,31.5977395 194.180421,30.3502993 194.994476,29.0165714 C194.994476,28.7845714 194.944759,28.5304762 194.911615,28.2321905 C194.812181,27.4699048 194.685127,27.2544762 194.585694,26.5032381 Z" fill="#008AB0"></path>
            </g>
        </g>
    </g>
</svg>
