<svg viewBox="0 0 200 200" version="1.1" xmlns="http://www.w3.org/2000/svg" xmlns:xlink="http://www.w3.org/1999/xlink">
    <g id="Images" stroke="none" stroke-width="1" fill="none" fill-rule="evenodd">
        <g id="Denver-Mattress">
            <g transform="translate(40.000000, 54.000000)">
                <path d="M114.136842,85.1476448 C115.964211,85.1476448 115.964211,87.9256721 114.136842,87.9256721 C112.307018,87.9281371 112.307018,85.1476448 114.136842,85.1476448 Z M104.167368,61.0525104 C105.658246,56.4257516 106.417193,51.6017948 106.417193,46.6841689 C106.417193,34.2138584 101.578596,22.4904354 92.7929825,13.6732185 C84.0073684,4.85600151 72.3259649,0 59.9003509,0 C34.2508772,0 13.3835088,20.9424309 13.3835088,46.6841689 C13.3835088,51.6017948 14.1449123,56.4257516 15.6333333,61.0525104 L0,61.0525104 L0,63.0392806 L119.537895,63.0392806 L119.537895,61.0525104 L104.167368,61.0525104 L104.167368,61.0525104 Z" id="Shape" fill="#7998AC" fill-rule="nonzero"></path>
                <path d="M98.1719298,61.0525104 L17.7235088,61.0525104 C16.1577896,56.425159 15.3603822,51.5710408 15.3631579,46.6841689 C15.3631579,34.7438281 19.9954386,23.5207952 28.4077193,15.0757895 C36.7422174,6.66659605 48.0820858,1.95261371 59.9003509,1.98430519 C71.7978947,1.98430519 82.9807018,6.63324877 91.3954386,15.0757895 C99.7755617,23.4405573 104.472782,34.8224296 104.44,46.6841689 C104.44,51.6116547 103.639298,56.4380765 102.079649,61.0525104 L98.1719298,61.0525104 Z" id="Shape" fill="#FFFFFF" fill-rule="nonzero"></path>
                <path d="M104.437544,46.6841689 C104.437544,34.7438281 99.8052632,23.5207952 91.3929825,15.0757895 C83.0578849,6.66598768 71.7170106,1.95195483 59.8978947,1.98430519 C48.0796297,1.95261371 36.7397612,6.66659605 28.4052632,15.0757895 C20.02514,23.4405573 15.3279194,34.8224296 15.3607018,46.6841689 C15.3607018,51.6116547 16.1614035,56.4380765 17.7210526,61.0525104 L21.7515789,61.0525104 L34.2705263,46.9183415 L40.1578947,49.7358084 C39.973566,48.640325 39.8799129,47.5314079 39.8778947,46.4204165 C39.8778947,35.3428171 48.86,26.3284021 59.8978947,26.3284021 C65.2473684,26.3284021 70.2750877,28.4187012 74.0575439,32.2147633 C77.8250225,35.9745167 79.9370541,41.0907399 79.922807,46.4228815 C79.922807,47.3299924 79.8614035,48.2420333 79.7410526,49.1368194 L80.3845614,49.7012988 L82.8603509,48.3110526 L98.1719298,61.0574404 L102.079649,61.0574404 C103.636842,56.4380765 104.437544,51.6116547 104.437544,46.6841689 L104.437544,46.6841689 Z" id="Shape"></path>
                <path d="M72.66,33.6173343 C69.2836812,30.209421 64.688891,28.299208 59.9003509,28.3127073 C55.1125532,28.2993168 50.5185662,30.2095637 47.1431579,33.6173343 C43.7491988,37.0057594 41.84683,41.6159158 41.86,46.4204165 C41.86,47.9043317 42.0392982,49.378387 42.3929825,50.8031427 L42.7835088,50.9904809 L55.2508772,40.265373 L62.2778947,46.6225445 L64.7512281,43.9406513 L69.4031579,50.0981598 L75.6368421,45.5280954 L77.9087719,47.5222605 C78.235772,42.3450184 76.3229494,37.2776126 72.66,33.6173343 L72.66,33.6173343 Z" id="Shape"></path>
                <path d="M0,90.9773116 L119.537895,90.9773116 L119.537895,92.9640818 L0,92.9640818 L0,90.9773116 Z M41.8575439,46.4204165 C41.8575439,41.5841348 43.7364912,37.0362552 47.1407018,33.6173343 C50.5162656,30.2097967 55.1101512,28.299592 59.8978947,28.3127073 C64.7192982,28.3127073 69.2508772,30.1959485 72.6575439,33.6173343 C76.3214519,37.2766849 78.2329332,42.3452811 77.9014035,47.5222605 L79.7361404,49.1343544 C79.8564912,48.2420333 79.9178947,47.3299924 79.9178947,46.4204165 C79.9321418,41.0882749 77.8201102,35.9720517 74.0526316,32.2122984 C70.3055991,28.4308921 65.2068091,26.3112548 59.8929825,26.3259371 C48.8550877,26.3259371 39.8729825,35.3403521 39.8729825,46.4179515 C39.8729825,47.5321204 39.9712281,48.6388944 40.1529825,49.7333434 L42.3831579,50.8006778 C42.0345476,49.3668476 41.8580894,47.8963141 41.8575439,46.4204165 L41.8575439,46.4204165 Z" id="Shape" fill="#7998AC" fill-rule="nonzero"></path>
                <path d="M82.8578947,48.3061227 L80.3845614,49.6988338 L79.7410526,49.1318894 L77.9063158,47.5197955 L75.634386,45.5256304 L69.4007018,50.0956948 L64.7487719,43.9381863 L62.2754386,46.6200795 L55.2484211,40.262908 L42.7810526,50.9880159 L42.3905263,50.8006778 L40.1603509,49.7333434 L34.2705263,46.9183415 L21.7515789,61.0525104 L98.1719298,61.0525104 L82.8578947,48.3061227 Z M15.2108772,87.8763726 L13.4350877,73.2220939 L10.9789474,86.8805225 L9.07052632,73.2220939 L6.80105263,87.9281371 L4.89263158,87.533741 L8.18385965,68.4499016 L9.88105263,66.7712533 L11.1361404,77.8365278 L12.5459649,68.4499016 L14.2185965,66.7712533 L17.0136842,87.533741 L15.2108772,87.8763726 Z M25.7894737,87.8763726 L23.2031579,72.8548126 L20.6684211,87.8763726 L18.6592982,87.533741 L22.3140351,68.3981371 L23.9866667,66.6923741 L27.6954386,87.533741 L25.7894737,87.8763726 Z" id="Shape" fill="#7998AC" fill-rule="nonzero"></path>
                <path d="M23.1785965,87.0629307 L21.3463158,84.4401969 L25.0845614,84.4401969 L23.1785965,87.0629307 Z M34.3,69.3939871 L32.7845614,69.3939871 L32.7845614,87.533741 L30.9031579,87.533741 L30.9031579,69.3939871 L28.9431579,69.3939871 L29.6480702,67.3480576 L35.0049123,67.3480576 L34.3,69.3939871 Z M42.9775439,69.3939871 L41.4621053,69.3939871 L41.4621053,87.533741 L39.5807018,87.533741 L39.5807018,69.3939871 L37.6231579,69.3939871 L38.3280702,67.3480576 L43.6824561,67.3480576 L42.9775439,69.3939871 Z M52.2052632,87.9281371 L48.8084211,77.4421318 L49.2775439,77.4421318 C50.6898246,77.3632526 51.6821053,76.8924423 51.6035088,73.3773874 C51.5519298,70.2320788 50.8445614,69.3939871 49.017193,69.3939871 L48.5480702,69.3939871 L48.5480702,87.533741 L46.5880702,87.533741 L46.5880702,67.3480576 L49.1989474,67.3480576 C52.0996491,67.3480576 53.585614,68.5287808 53.6396491,73.3773874 C53.7182456,78.5686255 51.8638596,78.9630216 51.4438596,79.12078 L51.1589474,79.2514237 L53.8729825,87.3242181 L52.2052632,87.9281371 Z M59.2568421,69.3939871 L59.2568421,77.4421318 L63.3585965,77.4421318 L63.3585965,79.4609466 L59.3084211,79.4609466 L59.3084211,85.4902764 L63.3585965,85.4902764 L63.3585965,87.533741 L57.2698246,87.533741 L57.2698246,79.4609466 L55.6512281,79.4609466 L56.3561404,77.4421318 L57.2698246,77.4421318 L57.2698246,67.3480576 L62.9140351,67.3480576 L63.6189474,69.3939871 L59.2568421,69.3939871 Z M70.3021053,69.3151079 C69.880169,69.4476761 69.5017117,69.6920885 69.2066667,70.0225559 C68.2929825,70.9666414 68.0842105,72.1720144 68.5803509,73.3773874 L71.7659649,80.8487278 C72.6035088,82.7886634 72.1589474,84.6497198 70.7221053,86.1706096 C70.2280142,86.7679895 69.5758444,87.2131627 68.8407018,87.4548618 L67.1164912,88.13766 L66.3845614,86.2494888 L68.1087719,85.5691556 C69.0224561,85.2561037 69.5185965,84.7557137 69.8845614,83.8905074 C70.2505263,83.025301 70.3291228,82.3449678 69.9361404,81.4772965 L66.7210526,74.109485 C65.7803509,71.9329118 66.5392982,69.6528095 68.3691228,68.1861492 C68.8136842,67.8188679 69.0985965,67.6339947 69.6217544,67.4244718 L71.4,66.6899091 L72.1319298,68.5780803 L70.3021053,69.3151079 L70.3021053,69.3151079 Z M78.8985965,69.3151079 C78.4760824,69.4464341 78.0973161,69.6910461 77.8031579,70.0225559 C76.8894737,70.9666414 76.6807018,72.1720144 77.1768421,73.3773874 L80.3624561,80.8487278 C81.2,82.7886634 80.7554386,84.6497198 79.3185965,86.1706096 C78.82402,86.7685721 78.1708896,87.2138198 77.4347368,87.4548618 L75.7129825,88.13766 L74.9810526,86.2494888 L76.7052632,85.5691556 C77.6189474,85.2561037 78.1150877,84.7557137 78.4810526,83.8905074 C78.8470175,83.025301 78.925614,82.3449678 78.5326316,81.4772965 L75.3175439,74.109485 C74.3768421,71.9329118 75.1357895,69.6528095 76.9631579,68.1861492 C77.4101754,67.8188679 77.6950877,67.6339947 78.2182456,67.4244718 L79.9964912,66.6899091 L80.7284211,68.5780803 L78.8985965,69.3151079 L78.8985965,69.3151079 Z M97.6536842,87.0111662 C97.0273684,87.6668497 95.9810526,87.8492579 95.2761404,87.8492579 C91.0196491,87.9010223 90.7568421,81.8988073 90.7568421,77.4938963 C90.7568421,73.0643355 90.86,67.0621204 95.2761404,67.0350057 C96.0350877,67.0350057 97.1035088,67.2716433 97.8084211,68.006206 L97.9901754,68.2157289 L97.2091228,70.4440666 L97.1035088,70.1827793 C96.7680633,69.4790429 96.0532881,69.0374507 95.2761404,69.0538205 C92.2698246,69.0538205 92.7684211,74.0873003 92.7684211,77.4938963 C92.7684211,80.8758425 92.1961404,85.830443 95.2761404,85.830443 C96.0188319,85.8458297 96.7025898,85.4262072 97.0273684,84.7557137 L97.2091228,84.3884324 L97.9901754,86.6685346 L97.6536842,87.0111662 L97.6536842,87.0111662 Z M105.257895,87.8492579 C100.895789,87.8492579 100.73614,81.8445778 100.73614,77.4421318 C100.73614,73.0396857 100.893333,67.0350057 105.257895,67.0350057 C109.671579,67.0350057 109.804211,73.0396857 109.804211,77.4421318 C109.804211,81.8445778 109.647018,87.8492579 105.257895,87.8492579 Z" id="Shape" fill="#7998AC" fill-rule="nonzero"></path>
                <path d="M105.257895,69.0538205 C102.723158,69.0538205 102.750175,74.0355358 102.750175,77.4421318 C102.750175,80.8487278 102.801754,85.830443 105.257895,85.830443 C107.684561,85.830443 107.790175,80.8487278 107.790175,77.4421318 C107.792632,74.0330708 107.765614,69.0538205 105.257895,69.0538205 L105.257895,69.0538205 Z" id="Shape" fill="#FFFFFF" fill-rule="nonzero"></path>
                <path d="M38.0701754,40.3689019 L37.0508772,43.4032866 L20.3049123,37.8669519 L21.3094737,34.8029875 C22.4589474,31.2287732 27.3712281,32.6091594 30.9252632,33.7849527 C34.5014035,34.9706058 39.2466667,36.7798978 38.0701754,40.3689019 Z M22.9305263,35.4636009 L22.505614,36.755248 L35.8940351,41.1798788 L36.2968421,39.9523211 C37.1221053,37.4355812 33.1185965,36.3805718 30.3726316,35.4734608 C27.6463158,34.5712798 23.7778947,32.8803067 22.9305263,35.4636009 L22.9305263,35.4636009 Z" id="Combined-Shape" fill="#7998AC" fill-rule="nonzero"></path>
                <path d="M32.305614,19.7814275 L37.2792982,24.7951874 L39.8336842,22.2414729 L41.0814035,23.5010754 L38.5589474,26.0202802 L42.2849123,29.7744377 L44.8049123,27.2552329 L46.0698246,28.5296251 L42.2775439,32.3158273 L37.2915789,27.2872775 L36.2796491,28.2954525 L35.4715789,26.5995494 L36.0438596,26.0301401 L29.8077193,19.7444529 L33.32,16.2318629 L35.0245614,17.0674896 L32.305614,19.7814275 Z M58.52,24.334237 L51.38,12.1400038 L53.9049123,24.6744036 L52.1733333,25.0244301 L48.8796491,8.53127982 L50.0512281,6.77128739 L56.8645614,18.7461378 L54.4207018,6.5001401 L56.1350877,6.1796933 L59.605614,23.5528398 L58.52,24.334237 Z M68.1185965,25.7811776 L67.1459649,23.9053313 L69.1452632,6.85756153 L70.8768421,7.01778493 L68.8996491,21.1519538 L75.2438596,8.44500568 L76.7224561,9.25105263 L68.1185965,25.7811776 Z M88.0452632,19.1454638 L83.0445614,24.1296441 L85.5842105,26.6956835 L84.3291228,27.942961 L81.8214035,25.4114313 L78.0757895,29.145869 L80.5859649,31.6798637 L79.3136842,32.9443961 L75.5459649,29.1360091 L80.5614035,24.137039 L79.5592982,23.1239341 L81.2491228,22.3154222 L81.8164912,22.8872965 L88.0845614,16.6385839 L91.577193,20.1659637 L90.7445614,21.8741916 L88.0452632,19.1454638 Z M83.2484211,42.4394813 L91.1350877,36.8464521 L91.2578947,37.2433131 C91.6901754,38.4117115 92.3435088,39.1240894 95.2614035,38.1430292 C97.877193,37.2778228 98.3954386,36.4643809 97.9214035,34.9262363 L97.7985965,34.5293752 L82.6245614,39.2547331 L82.1136842,37.6056645 L98.997193,32.347872 L99.6775439,34.549095 C100.434035,36.9918856 99.8322807,38.55468 95.7894737,39.861117 C91.4691228,41.2784778 90.6561404,39.8192124 90.4154386,39.5061605 L90.2312281,39.2991026 L84.1842105,43.6892238 L83.2484211,42.4394813 Z" id="Shape" fill="#7998AC" fill-rule="nonzero"></path>
            </g>
        </g>
    </g>
</svg>
