<svg width="200px" height="200px" viewBox="0 0 200 200" version="1.1" xmlns="http://www.w3.org/2000/svg" xmlns:xlink="http://www.w3.org/1999/xlink">
    <g id="Images" stroke="none" stroke-width="1" fill="none" fill-rule="evenodd">
        <g id="Digital-Promise">
            <g id="Group" transform="translate(40.000000, 51.000000)">
                <polygon id="Mask" points="0.0180904523 82.3157789 0.0180904523 0.19959799 46.2150754 0.19959799 92.4120603 0.19959799 92.4120603 82.3157789 0.0180904523 82.3157789"></polygon>
                <polyline id="Fill-50" fill="#F2CC20" points="83.080402 41.0764824 51.1727638 41.0764824 51.1727638 82.0157789 51.4736683 82.0157789 51.4736683 82.3157789 92.4120603 82.3157789 92.4120603 41.0764824 83.080402 41.0764824"></polyline>
                <polyline id="Fill-52" fill="#DC3348" points="47.6460302 41.0764824 47.6460302 37.5494472 67.1264322 37.5494472 67.1264322 0.19959799 0 0.19959799 0 67.3263317 47.6460302 67.3263317 47.6460302 41.0764824"></polyline>
                <polyline id="Fill-54" fill="#F3922B" points="51.1727638 82.0157789 36.4230151 82.0157789 36.4230151 97.0667337 51.4736683 97.0667337 51.4736683 82.3154774 51.1727638 82.3154774 51.1727638 82.0157789"></polyline>
                <polyline id="Fill-56" fill="#319BD0" points="108.967839 51.6732663 104.753668 51.6732663 104.753668 66.7242211 119.804322 66.7242211 119.804322 51.6732663 108.967839 51.6732663"></polyline>
                <polyline id="Fill-57" fill="#31B49E" points="95.938794 55.8874372 101.226633 55.8874372 101.226633 48.1465327 108.967839 48.1465327 108.967839 30.0003015 83.080402 30.0003015 83.080402 37.5494472 95.938794 37.5494472 95.938794 55.8874372"></polyline>
            </g>
        </g>
    </g>
</svg>
