<svg width="200px" height="200px" viewBox="0 0 200 200" version="1.1" xmlns="http://www.w3.org/2000/svg" xmlns:xlink="http://www.w3.org/1999/xlink">
    <g id="Images" stroke="none" stroke-width="1" fill="none" fill-rule="evenodd">
        <g id="Herman-Miller" fill="#EF3C24">
            <path d="M153,100.068866 C153,114.674047 147.827966,127.140171 137.485303,137.485508 C127.144045,147.826629 114.672134,153 100.069569,153 C85.4712215,153 72.9726071,147.826629 62.5835643,137.485508 C52.1959269,127.140171 47,114.674047 47,100.068866 C47,85.4664952 52.1959269,72.9722627 62.5835643,62.5819522 C72.9726071,52.1930471 85.4712215,47 100.069569,47 C114.672134,47 127.144045,52.1930471 137.485303,62.5819522 C147.827966,72.9722627 153,85.4664952 153,100.068866 M129.551571,127.866776 L129.551571,72.4100925 L128.570571,72.4100925 C127.35205,81.9585532 125.43643,90.1015884 123.097771,96.8434144 C117.66573,113.218027 109.990599,121.408846 100.069569,121.408846 C90.149945,121.408846 82.4256242,113.218027 76.9050397,96.8434144 C74.5635698,90.1015884 72.785683,81.9585532 71.5699739,72.4100925 L70.5847576,72.4100925 L70.5847576,127.866776 C79.4770024,125.245658 89.3094894,123.935801 100.069569,123.935801 C110.739701,123.935801 120.569377,125.245658 129.551571,127.866776" id="Fill-1"></path>
        </g>
    </g>
</svg>
